G04 #@! TF.GenerationSoftware,KiCad,Pcbnew,(5.1.2)-1*
G04 #@! TF.CreationDate,2019-05-08T00:12:38+02:00*
G04 #@! TF.ProjectId,takt-panel,74616b74-2d70-4616-9e65-6c2e6b696361,rev?*
G04 #@! TF.SameCoordinates,Original*
G04 #@! TF.FileFunction,Profile,NP*
%FSLAX46Y46*%
G04 Gerber Fmt 4.6, Leading zero omitted, Abs format (unit mm)*
G04 Created by KiCad (PCBNEW (5.1.2)-1) date 2019-05-08 00:12:38*
%MOMM*%
%LPD*%
G04 APERTURE LIST*
%ADD10C,0.100000*%
%ADD11C,0.200000*%
G04 APERTURE END LIST*
D10*
X134215000Y-82550000D02*
G75*
G03X134215000Y-82550000I-1500000J0D01*
G01*
X122785000Y-93980000D02*
G75*
G03X122785000Y-93980000I-1500000J0D01*
G01*
X122785000Y-82550000D02*
G75*
G03X122785000Y-82550000I-1500000J0D01*
G01*
X128500000Y-93980000D02*
G75*
G03X128500000Y-93980000I-1500000J0D01*
G01*
X134215000Y-88265000D02*
G75*
G03X134215000Y-88265000I-1500000J0D01*
G01*
X122785000Y-88265000D02*
G75*
G03X122785000Y-88265000I-1500000J0D01*
G01*
X128500000Y-82550000D02*
G75*
G03X128500000Y-82550000I-1500000J0D01*
G01*
X128500000Y-88265000D02*
G75*
G03X128500000Y-88265000I-1500000J0D01*
G01*
X134215000Y-93980000D02*
G75*
G03X134215000Y-93980000I-1500000J0D01*
G01*
D11*
X147138219Y-149480000D02*
X106838219Y-149480000D01*
X147138219Y-20980000D02*
X147138219Y-149480000D01*
X106838219Y-20980000D02*
X147138219Y-20980000D01*
X118070000Y-107940001D02*
G75*
G03X118070000Y-107940001I-3150000J0D01*
G01*
X142210000Y-132080000D02*
G75*
G03X142210000Y-132080000I-3150000J0D01*
G01*
X130140000Y-107940001D02*
G75*
G03X130140000Y-107940001I-3150000J0D01*
G01*
X115938219Y-23980000D02*
G75*
G03X115938219Y-23980000I-1600000J0D01*
G01*
X115938219Y-146480000D02*
G75*
G03X115938219Y-146480000I-1600000J0D01*
G01*
X106838219Y-149480000D02*
X106838219Y-20980000D01*
X142210000Y-107940001D02*
G75*
G03X142210000Y-107940001I-3150000J0D01*
G01*
X130750000Y-63500000D02*
G75*
G03X130750000Y-63500000I-3750000J0D01*
G01*
X118070000Y-132080000D02*
G75*
G03X118070000Y-132080000I-3150000J0D01*
G01*
X130140000Y-132080000D02*
G75*
G03X130140000Y-132080000I-3150000J0D01*
G01*
X130140000Y-120010000D02*
G75*
G03X130140000Y-120010000I-3150000J0D01*
G01*
X142210000Y-120010000D02*
G75*
G03X142210000Y-120010000I-3150000J0D01*
G01*
X118070000Y-120010000D02*
G75*
G03X118070000Y-120010000I-3150000J0D01*
G01*
M02*
