0
SECTION
2
HEADER
9
$INSUNITS
70
4
9
$ACADVER
1
AC1014
9
$HANDSEED
5
FFFF
0
ENDSEC
0
SECTION
2
TABLES
0
TABLE
2
VPORT
5
8
100
AcDbSymbolTable
0
ENDTAB
0
TABLE
2
LTYPE
5
5
100
AcDbSymbolTable
0
LTYPE
5
14
100
AcDbSymbolTableRecord
100
AcDbLinetypeTableRecord
2
BYBLOCK
70
0
0
LTYPE
5
15
100
AcDbSymbolTableRecord
100
AcDbLinetypeTableRecord
2
BYLAYER
70
0
0
ENDTAB
0
TABLE
2
LAYER
5
2
100
AcDbSymbolTable
70
2
0
LAYER
5
50
100
AcDbSymbolTableRecord
100
AcDbLayerTableRecord
2
0
70
0
6
CONTINUOUS
0
ENDTAB
0
TABLE
2
STYLE
5
3
100
AcDbSymbolTable
70
1
0
STYLE
5
11
100
AcDbSymbolTableRecord
100
AcDbTextStyleTableRecord
2
STANDARD
70
0
0
ENDTAB
0
TABLE
2
VIEW
5
6
100
AcDbSymbolTable
70
0
0
ENDTAB
0
TABLE
2
UCS
5
7
100
AcDbSymbolTable
70
0
0
ENDTAB
0
TABLE
2
APPID
5
9
100
AcDbSymbolTable
70
2
0
APPID
5
12
100
AcDbSymbolTableRecord
100
AcDbRegAppTableRecord
2
ACAD
70
0
0
ENDTAB
0
TABLE
2
DIMSTYLE
5
A
100
AcDbSymbolTable
70
1
0
ENDTAB
0
TABLE
2
BLOCK_RECORD
5
1
100
AcDbSymbolTable
70
1
0
BLOCK_RECORD
5
1F
100
AcDbSymbolTableRecord
100
AcDbBlockTableRecord
2
*MODEL_SPACE
0
BLOCK_RECORD
5
1B
100
AcDbSymbolTableRecord
100
AcDbBlockTableRecord
2
*PAPER_SPACE
0
ENDTAB
0
ENDSEC
0
SECTION
2
BLOCKS
0
BLOCK
5
20
100
AcDbEntity
100
AcDbBlockBegin
2
*MODEL_SPACE
0
ENDBLK
5
21
100
AcDbEntity
100
AcDbBlockEnd
0
BLOCK
5
1C
100
AcDbEntity
100
AcDbBlockBegin
2
*PAPER_SPACE
0
ENDBLK
5
1D
100
AcDbEntity
100
AcDbBlockEnd
0
ENDSEC
0
SECTION
2
ENTITIES
0
LINE
5
100
100
AcDbEntity
8
0
100
AcDbLine
10
0
20
0
30
0
11
0
21
1.9999999999999998
31
0
0
LINE
5
101
100
AcDbEntity
8
0
100
AcDbLine
10
0
20
-129
30
0
11
0
21
-131
31
0
0
LINE
5
102
100
AcDbEntity
8
0
100
AcDbLine
10
0
20
-129
30
0
11
25
21
-129
31
0
0
LINE
5
103
100
AcDbEntity
8
0
100
AcDbLine
10
25
20
-129
30
0
11
25
21
-131
31
0
0
LINE
5
104
100
AcDbEntity
8
0
100
AcDbLine
10
25
20
-131
30
0
11
50
21
-131
31
0
0
LINE
5
105
100
AcDbEntity
8
0
100
AcDbLine
10
50
20
-131
30
0
11
50
21
-129
31
0
0
LINE
5
106
100
AcDbEntity
8
0
100
AcDbLine
10
50
20
-129
30
0
11
75
21
-129
31
0
0
LINE
5
107
100
AcDbEntity
8
0
100
AcDbLine
10
75
20
-131
30
0
11
100
21
-131
31
0
0
LINE
5
108
100
AcDbEntity
8
0
100
AcDbLine
10
100
20
-131
30
0
11
100
21
-129
31
0
0
LINE
5
109
100
AcDbEntity
8
0
100
AcDbLine
10
100
20
-129
30
0
11
125
21
-129
31
0
0
LINE
5
110
100
AcDbEntity
8
0
100
AcDbLine
10
125
20
-131
30
0
11
150
21
-131
31
0
0
LINE
5
111
100
AcDbEntity
8
0
100
AcDbLine
10
150
20
-131
30
0
11
150
21
-129
31
0
0
LINE
5
112
100
AcDbEntity
8
0
100
AcDbLine
10
125
20
-129
30
0
11
125
21
-131
31
0
0
LINE
5
113
100
AcDbEntity
8
0
100
AcDbLine
10
75
20
-129
30
0
11
75
21
-131
31
0
0
LINE
5
114
100
AcDbEntity
8
0
100
AcDbLine
10
0
20
-150
30
0
11
600
21
-150
31
0
0
LINE
5
115
100
AcDbEntity
8
0
100
AcDbLine
10
25
20
-129
30
0
11
25
21
-131
31
0
0
LINE
5
116
100
AcDbEntity
8
0
100
AcDbLine
10
100
20
-131
30
0
11
100
21
-129
31
0
0
LINE
5
117
100
AcDbEntity
8
0
100
AcDbLine
10
125
20
-131
30
0
11
150
21
-131
31
0
0
LINE
5
118
100
AcDbEntity
8
0
100
AcDbLine
10
25
20
-131
30
0
11
50
21
-131
31
0
0
LINE
5
119
100
AcDbEntity
8
0
100
AcDbLine
10
75
20
-131
30
0
11
100
21
-131
31
0
0
LINE
5
120
100
AcDbEntity
8
0
100
AcDbLine
10
125
20
-129
30
0
11
125
21
-131
31
0
0
LINE
5
121
100
AcDbEntity
8
0
100
AcDbLine
10
100
20
-129
30
0
11
125
21
-129
31
0
0
LINE
5
122
100
AcDbEntity
8
0
100
AcDbLine
10
50
20
-129
30
0
11
75
21
-129
31
0
0
LINE
5
123
100
AcDbEntity
8
0
100
AcDbLine
10
0
20
-129
30
0
11
25
21
-129
31
0
0
LINE
5
124
100
AcDbEntity
8
0
100
AcDbLine
10
75
20
-129
30
0
11
75
21
-131
31
0
0
LINE
5
125
100
AcDbEntity
8
0
100
AcDbLine
10
50
20
-131
30
0
11
50
21
-129
31
0
0
LINE
5
126
100
AcDbEntity
8
0
100
AcDbLine
10
150
20
-131
30
0
11
150
21
-129
31
0
0
LINE
5
127
100
AcDbEntity
8
0
100
AcDbLine
10
175
20
-129
30
0
11
175
21
-131
31
0
0
LINE
5
128
100
AcDbEntity
8
0
100
AcDbLine
10
250
20
-131
30
0
11
250
21
-129
31
0
0
LINE
5
129
100
AcDbEntity
8
0
100
AcDbLine
10
275
20
-131
30
0
11
300
21
-131
31
0
0
LINE
5
130
100
AcDbEntity
8
0
100
AcDbLine
10
175
20
-131
30
0
11
200
21
-131
31
0
0
LINE
5
131
100
AcDbEntity
8
0
100
AcDbLine
10
225
20
-131
30
0
11
250
21
-131
31
0
0
LINE
5
132
100
AcDbEntity
8
0
100
AcDbLine
10
275
20
-129
30
0
11
275
21
-131
31
0
0
LINE
5
133
100
AcDbEntity
8
0
100
AcDbLine
10
250
20
-129
30
0
11
275
21
-129
31
0
0
LINE
5
134
100
AcDbEntity
8
0
100
AcDbLine
10
200
20
-129
30
0
11
225
21
-129
31
0
0
LINE
5
135
100
AcDbEntity
8
0
100
AcDbLine
10
225
20
-129
30
0
11
225
21
-131
31
0
0
LINE
5
136
100
AcDbEntity
8
0
100
AcDbLine
10
200
20
-131
30
0
11
200
21
-129
31
0
0
LINE
5
137
100
AcDbEntity
8
0
100
AcDbLine
10
300
20
-131
30
0
11
300
21
-129
31
0
0
LINE
5
138
100
AcDbEntity
8
0
100
AcDbLine
10
150
20
-129
30
0
11
175
21
-129
31
0
0
LINE
5
139
100
AcDbEntity
8
0
100
AcDbLine
10
150
20
-129
30
0
11
150
21
-131
31
0
0
LINE
5
140
100
AcDbEntity
8
0
100
AcDbLine
10
325
20
-129
30
0
11
325
21
-131
31
0
0
LINE
5
141
100
AcDbEntity
8
0
100
AcDbLine
10
400
20
-131
30
0
11
400
21
-129
31
0
0
LINE
5
142
100
AcDbEntity
8
0
100
AcDbLine
10
425
20
-131
30
0
11
450
21
-131
31
0
0
LINE
5
143
100
AcDbEntity
8
0
100
AcDbLine
10
325
20
-131
30
0
11
350
21
-131
31
0
0
LINE
5
144
100
AcDbEntity
8
0
100
AcDbLine
10
375
20
-131
30
0
11
400
21
-131
31
0
0
LINE
5
145
100
AcDbEntity
8
0
100
AcDbLine
10
425
20
-129
30
0
11
425
21
-131
31
0
0
LINE
5
146
100
AcDbEntity
8
0
100
AcDbLine
10
400
20
-129
30
0
11
425
21
-129
31
0
0
LINE
5
147
100
AcDbEntity
8
0
100
AcDbLine
10
350
20
-129
30
0
11
375
21
-129
31
0
0
LINE
5
148
100
AcDbEntity
8
0
100
AcDbLine
10
300
20
-129
30
0
11
325
21
-129
31
0
0
LINE
5
149
100
AcDbEntity
8
0
100
AcDbLine
10
375
20
-129
30
0
11
375
21
-131
31
0
0
LINE
5
150
100
AcDbEntity
8
0
100
AcDbLine
10
350
20
-131
30
0
11
350
21
-129
31
0
0
LINE
5
151
100
AcDbEntity
8
0
100
AcDbLine
10
450
20
-131
30
0
11
450
21
-129
31
0
0
LINE
5
152
100
AcDbEntity
8
0
100
AcDbLine
10
475
20
-129
30
0
11
475
21
-131
31
0
0
LINE
5
153
100
AcDbEntity
8
0
100
AcDbLine
10
550
20
-131
30
0
11
550
21
-129
31
0
0
LINE
5
154
100
AcDbEntity
8
0
100
AcDbLine
10
575
20
-131
30
0
11
600
21
-131
31
0
0
LINE
5
155
100
AcDbEntity
8
0
100
AcDbLine
10
475
20
-131
30
0
11
500
21
-131
31
0
0
LINE
5
156
100
AcDbEntity
8
0
100
AcDbLine
10
525
20
-131
30
0
11
550
21
-131
31
0
0
LINE
5
157
100
AcDbEntity
8
0
100
AcDbLine
10
575
20
-129
30
0
11
575
21
-131
31
0
0
LINE
5
158
100
AcDbEntity
8
0
100
AcDbLine
10
550
20
-129
30
0
11
575
21
-129
31
0
0
LINE
5
159
100
AcDbEntity
8
0
100
AcDbLine
10
500
20
-129
30
0
11
525
21
-129
31
0
0
LINE
5
160
100
AcDbEntity
8
0
100
AcDbLine
10
450
20
-129
30
0
11
475
21
-129
31
0
0
LINE
5
161
100
AcDbEntity
8
0
100
AcDbLine
10
525
20
-129
30
0
11
525
21
-131
31
0
0
LINE
5
162
100
AcDbEntity
8
0
100
AcDbLine
10
500
20
-131
30
0
11
500
21
-129
31
0
0
LINE
5
163
100
AcDbEntity
8
0
100
AcDbLine
10
600
20
-131
30
0
11
600
21
-129
31
0
0
LINE
5
164
100
AcDbEntity
8
0
100
AcDbLine
10
150
20
0
30
0
11
150
21
1.9999999999999929
31
0
0
LINE
5
165
100
AcDbEntity
8
0
100
AcDbLine
10
150
20
0
30
0
11
150
21
1.9999999999999929
31
0
0
LINE
5
166
100
AcDbEntity
8
0
100
AcDbLine
10
0
20
1.9999999999999929
30
0
11
25
21
1.9999999999999929
31
0
0
LINE
5
167
100
AcDbEntity
8
0
100
AcDbLine
10
100
20
1.9999999999999929
30
0
11
125
21
1.9999999999999929
31
0
0
LINE
5
168
100
AcDbEntity
8
0
100
AcDbLine
10
75
20
1.9999999999999929
30
0
11
75
21
0
31
0
0
LINE
5
169
100
AcDbEntity
8
0
100
AcDbLine
10
50
20
0
30
0
11
50
21
1.9999999999999929
31
0
0
LINE
5
170
100
AcDbEntity
8
0
100
AcDbLine
10
125
20
0
30
0
11
150
21
0
31
0
0
LINE
5
171
100
AcDbEntity
8
0
100
AcDbLine
10
25
20
0
30
0
11
50
21
0
31
0
0
LINE
5
172
100
AcDbEntity
8
0
100
AcDbLine
10
75
20
0
30
0
11
100
21
0
31
0
0
LINE
5
173
100
AcDbEntity
8
0
100
AcDbLine
10
125
20
0
30
0
11
150
21
0
31
0
0
LINE
5
174
100
AcDbEntity
8
0
100
AcDbLine
10
25
20
0
30
0
11
50
21
0
31
0
0
LINE
5
175
100
AcDbEntity
8
0
100
AcDbLine
10
0
20
1.9999999999999929
30
0
11
25
21
1.9999999999999929
31
0
0
LINE
5
176
100
AcDbEntity
8
0
100
AcDbLine
10
75
20
0
30
0
11
100
21
0
31
0
0
LINE
5
177
100
AcDbEntity
8
0
100
AcDbLine
10
125
20
1.9999999999999929
30
0
11
125
21
0
31
0
0
LINE
5
178
100
AcDbEntity
8
0
100
AcDbLine
10
375
20
0
30
0
11
400
21
0
31
0
0
LINE
5
179
100
AcDbEntity
8
0
100
AcDbLine
10
125
20
1.9999999999999929
30
0
11
125
21
0
31
0
0
LINE
5
180
100
AcDbEntity
8
0
100
AcDbLine
10
225
20
0
30
0
11
250
21
0
31
0
0
LINE
5
181
100
AcDbEntity
8
0
100
AcDbLine
10
50
20
1.9999999999999929
30
0
11
75
21
1.9999999999999929
31
0
0
LINE
5
182
100
AcDbEntity
8
0
100
AcDbLine
10
475
20
1.9999999999999929
30
0
11
475
21
0
31
0
0
LINE
5
183
100
AcDbEntity
8
0
100
AcDbLine
10
100
20
1.9999999999999929
30
0
11
125
21
1.9999999999999929
31
0
0
LINE
5
184
100
AcDbEntity
8
0
100
AcDbLine
10
200
20
1.9999999999999929
30
0
11
225
21
1.9999999999999929
31
0
0
LINE
5
185
100
AcDbEntity
8
0
100
AcDbLine
10
250
20
0
30
0
11
250
21
1.9999999999999929
31
0
0
LINE
5
186
100
AcDbEntity
8
0
100
AcDbLine
10
575
20
1.9999999999999929
30
0
11
575
21
0
31
0
0
LINE
5
187
100
AcDbEntity
8
0
100
AcDbLine
10
50
20
1.9999999999999929
30
0
11
75
21
1.9999999999999929
31
0
0
LINE
5
188
100
AcDbEntity
8
0
100
AcDbLine
10
150
20
1.9999999999999929
30
0
11
150
21
0
31
0
0
LINE
5
189
100
AcDbEntity
8
0
100
AcDbLine
10
525
20
0
30
0
11
550
21
0
31
0
0
LINE
5
190
100
AcDbEntity
8
0
100
AcDbLine
10
50
20
0
30
0
11
50
21
1.9999999999999929
31
0
0
LINE
5
191
100
AcDbEntity
8
0
100
AcDbLine
10
550
20
0
30
0
11
550
21
1.9999999999999929
31
0
0
LINE
5
192
100
AcDbEntity
8
0
100
AcDbLine
10
200
20
0
30
0
11
200
21
1.9999999999999929
31
0
0
LINE
5
193
100
AcDbEntity
8
0
100
AcDbLine
10
100
20
0
30
0
11
100
21
1.9999999999999929
31
0
0
LINE
5
194
100
AcDbEntity
8
0
100
AcDbLine
10
500
20
0
30
0
11
500
21
1.9999999999999929
31
0
0
LINE
5
195
100
AcDbEntity
8
0
100
AcDbLine
10
525
20
1.9999999999999929
30
0
11
525
21
0
31
0
0
LINE
5
196
100
AcDbEntity
8
0
100
AcDbLine
10
25
20
1.9999999999999929
30
0
11
25
21
0
31
0
0
LINE
5
197
100
AcDbEntity
8
0
100
AcDbLine
10
425
20
0
30
0
11
450
21
0
31
0
0
LINE
5
198
100
AcDbEntity
8
0
100
AcDbLine
10
100
20
0
30
0
11
100
21
1.9999999999999929
31
0
0
LINE
5
199
100
AcDbEntity
8
0
100
AcDbLine
10
475
20
0
30
0
11
500
21
0
31
0
0
LINE
5
200
100
AcDbEntity
8
0
100
AcDbLine
10
575
20
0
30
0
11
600
21
0
31
0
0
LINE
5
201
100
AcDbEntity
8
0
100
AcDbLine
10
400
20
1.9999999999999929
30
0
11
425
21
1.9999999999999929
31
0
0
LINE
5
202
100
AcDbEntity
8
0
100
AcDbLine
10
225
20
1.9999999999999929
30
0
11
225
21
0
31
0
0
LINE
5
203
100
AcDbEntity
8
0
100
AcDbLine
10
325
20
1.9999999999999929
30
0
11
325
21
0
31
0
0
LINE
5
204
100
AcDbEntity
8
0
100
AcDbLine
10
400
20
0
30
0
11
400
21
1.9999999999999929
31
0
0
LINE
5
205
100
AcDbEntity
8
0
100
AcDbLine
10
175
20
1.9999999999999929
30
0
11
175
21
0
31
0
0
LINE
5
206
100
AcDbEntity
8
0
100
AcDbLine
10
375
20
1.9999999999999929
30
0
11
375
21
0
31
0
0
LINE
5
207
100
AcDbEntity
8
0
100
AcDbLine
10
500
20
1.9999999999999929
30
0
11
525
21
1.9999999999999929
31
0
0
LINE
5
208
100
AcDbEntity
8
0
100
AcDbLine
10
450
20
1.9999999999999929
30
0
11
475
21
1.9999999999999929
31
0
0
LINE
5
209
100
AcDbEntity
8
0
100
AcDbLine
10
150
20
1.9999999999999929
30
0
11
175
21
1.9999999999999929
31
0
0
LINE
5
210
100
AcDbEntity
8
0
100
AcDbLine
10
275
20
1.9999999999999929
30
0
11
275
21
0
31
0
0
LINE
5
211
100
AcDbEntity
8
0
100
AcDbLine
10
350
20
0
30
0
11
350
21
1.9999999999999929
31
0
0
LINE
5
212
100
AcDbEntity
8
0
100
AcDbLine
10
425
20
1.9999999999999929
30
0
11
425
21
0
31
0
0
LINE
5
213
100
AcDbEntity
8
0
100
AcDbLine
10
450
20
0
30
0
11
450
21
1.9999999999999929
31
0
0
LINE
5
214
100
AcDbEntity
8
0
100
AcDbLine
10
325
20
0
30
0
11
350
21
0
31
0
0
LINE
5
215
100
AcDbEntity
8
0
100
AcDbLine
10
550
20
1.9999999999999929
30
0
11
575
21
1.9999999999999929
31
0
0
LINE
5
216
100
AcDbEntity
8
0
100
AcDbLine
10
300
20
1.9999999999999929
30
0
11
325
21
1.9999999999999929
31
0
0
LINE
5
217
100
AcDbEntity
8
0
100
AcDbLine
10
350
20
1.9999999999999929
30
0
11
375
21
1.9999999999999929
31
0
0
LINE
5
218
100
AcDbEntity
8
0
100
AcDbLine
10
75
20
1.9999999999999929
30
0
11
75
21
0
31
0
0
LINE
5
219
100
AcDbEntity
8
0
100
AcDbLine
10
300
20
0
30
0
11
300
21
1.9999999999999929
31
0
0
LINE
5
220
100
AcDbEntity
8
0
100
AcDbLine
10
275
20
0
30
0
11
300
21
0
31
0
0
LINE
5
221
100
AcDbEntity
8
0
100
AcDbLine
10
250
20
1.9999999999999929
30
0
11
275
21
1.9999999999999929
31
0
0
LINE
5
222
100
AcDbEntity
8
0
100
AcDbLine
10
25
20
1.9999999999999929
30
0
11
25
21
0
31
0
0
LINE
5
223
100
AcDbEntity
8
0
100
AcDbLine
10
175
20
0
30
0
11
200
21
0
31
0
0
LINE
5
224
100
AcDbEntity
8
0
100
AcDbLine
10
0
20
1.9999999999999929
30
0
11
0
21
0
31
0
0
LINE
5
225
100
AcDbEntity
8
0
100
AcDbLine
10
0
20
0
30
0
11
0
21
-25.00000037252903
31
0
0
LINE
5
226
100
AcDbEntity
8
0
100
AcDbLine
10
0
20
-25.00000037252903
30
0
11
-2.0000000298023224
21
-25.00000037252903
31
0
0
LINE
5
227
100
AcDbEntity
8
0
100
AcDbLine
10
-2.0000000298023224
20
-25.00000037252903
30
0
11
-2.0000000298023224
21
-50
31
0
0
LINE
5
228
100
AcDbEntity
8
0
100
AcDbLine
10
-2.0000000298023224
20
-50
30
0
11
0
21
-50
31
0
0
LINE
5
229
100
AcDbEntity
8
0
100
AcDbLine
10
0
20
-129
30
0
11
0
21
-104.00000154972076
31
0
0
LINE
5
230
100
AcDbEntity
8
0
100
AcDbLine
10
0
20
-104.00000154972076
30
0
11
-2.0000000298023224
21
-104.00000154972076
31
0
0
LINE
5
231
100
AcDbEntity
8
0
100
AcDbLine
10
-2.0000000298023224
20
-104.00000154972076
30
0
11
-2.0000000298023224
21
-79.000001177191734
31
0
0
LINE
5
232
100
AcDbEntity
8
0
100
AcDbLine
10
-2.0000000298023224
20
-79.000001177191734
30
0
11
0
21
-79.000001177191734
31
0
0
LINE
5
233
100
AcDbEntity
8
0
100
AcDbLine
10
0
20
-79.000001177191734
30
0
11
0
21
-50
31
0
0
LINE
5
234
100
AcDbEntity
8
0
100
AcDbLine
10
600
20
0
30
0
11
602.00000897049904
21
0
31
0
0
LINE
5
235
100
AcDbEntity
8
0
100
AcDbLine
10
602.00000897049904
20
0
30
0
11
602.00000897049904
21
-25.00000037252903
31
0
0
LINE
5
236
100
AcDbEntity
8
0
100
AcDbLine
10
602.00000897049904
20
-25.00000037252903
30
0
11
600
21
-25.00000037252903
31
0
0
LINE
5
237
100
AcDbEntity
8
0
100
AcDbLine
10
600
20
-25.00000037252903
30
0
11
600
21
-50.00000074505806
31
0
0
LINE
5
238
100
AcDbEntity
8
0
100
AcDbLine
10
600
20
-50.00000074505806
30
0
11
602.00000897049904
21
-50.00000074505806
31
0
0
LINE
5
239
100
AcDbEntity
8
0
100
AcDbLine
10
602.00000897049904
20
-50.00000074505806
30
0
11
602.00000897049904
21
-79.000001177191734
31
0
0
LINE
5
240
100
AcDbEntity
8
0
100
AcDbLine
10
600
20
-131
30
0
11
602.00000897049904
21
-131
31
0
0
LINE
5
241
100
AcDbEntity
8
0
100
AcDbLine
10
602.00000897049904
20
-131
30
0
11
602.00000897049904
21
-106.00000157952309
31
0
0
LINE
5
242
100
AcDbEntity
8
0
100
AcDbLine
10
602.00000897049904
20
-106.00000157952309
30
0
11
600
21
-106.00000157952309
31
0
0
LINE
5
243
100
AcDbEntity
8
0
100
AcDbLine
10
600
20
-106.00000157952309
30
0
11
600
21
-81.000001206994057
31
0
0
LINE
5
244
100
AcDbEntity
8
0
100
AcDbLine
10
602.00000897049904
20
-81.000001206994057
30
0
11
602.00000897049904
21
-79.000001177191734
31
0
0
LINE
5
245
100
AcDbEntity
8
0
100
AcDbLine
10
602.00000897049904
20
-81.000001206994057
30
0
11
600
21
-81.000001206994057
31
0
0
ENDSEC
0
SECTION
2
OBJECTS
0
DICTIONARY
5
C
100
AcDbDictionary
3
ACAD_GROUP
350
D
3
ACAD_MLINESTYLE
350
17
0
DICTIONARY
5
D
100
AcDbDictionary
0
DICTIONARY
5
1A
330
C
100
AcDbDictionary
0
DICTIONARY
5
17
100
AcDbDictionary
0
ENDSEC
0
EOF
