G04 #@! TF.GenerationSoftware,KiCad,Pcbnew,(5.1.2)-1*
G04 #@! TF.CreationDate,2019-10-29T22:05:20+01:00*
G04 #@! TF.ProjectId,takt,74616b74-2e6b-4696-9361-645f70636258,rev?*
G04 #@! TF.SameCoordinates,Original*
G04 #@! TF.FileFunction,Soldermask,Top*
G04 #@! TF.FilePolarity,Negative*
%FSLAX46Y46*%
G04 Gerber Fmt 4.6, Leading zero omitted, Abs format (unit mm)*
G04 Created by KiCad (PCBNEW (5.1.2)-1) date 2019-10-29 22:05:20*
%MOMM*%
%LPD*%
G04 APERTURE LIST*
%ADD10C,0.500000*%
%ADD11O,2.720000X3.240000*%
%ADD12C,1.800000*%
%ADD13R,1.800000X1.800000*%
%ADD14O,1.700000X1.700000*%
%ADD15R,1.700000X1.700000*%
%ADD16O,2.200000X2.200000*%
%ADD17R,2.200000X2.200000*%
%ADD18C,0.100000*%
%ADD19C,1.600000*%
%ADD20C,1.780000*%
%ADD21O,1.600000X1.600000*%
%ADD22R,1.600000X1.600000*%
G04 APERTURE END LIST*
D10*
X73747142Y-108647142D02*
X71747142Y-108647142D01*
X72318571Y-108647142D02*
X72032857Y-108504285D01*
X71890000Y-108361428D01*
X71747142Y-108075714D01*
X71747142Y-107790000D01*
X73747142Y-106361428D02*
X73604285Y-106647142D01*
X73461428Y-106790000D01*
X73175714Y-106932857D01*
X72318571Y-106932857D01*
X72032857Y-106790000D01*
X71890000Y-106647142D01*
X71747142Y-106361428D01*
X71747142Y-105932857D01*
X71890000Y-105647142D01*
X72032857Y-105504285D01*
X72318571Y-105361428D01*
X73175714Y-105361428D01*
X73461428Y-105504285D01*
X73604285Y-105647142D01*
X73747142Y-105932857D01*
X73747142Y-106361428D01*
X71747142Y-104504285D02*
X71747142Y-103361428D01*
X70747142Y-104075714D02*
X73318571Y-104075714D01*
X73604285Y-103932857D01*
X73747142Y-103647142D01*
X73747142Y-103361428D01*
X72604285Y-100075714D02*
X72604285Y-97790000D01*
X71747142Y-94504285D02*
X71747142Y-93361428D01*
X70747142Y-94075714D02*
X73318571Y-94075714D01*
X73604285Y-93932857D01*
X73747142Y-93647142D01*
X73747142Y-93361428D01*
X73747142Y-91075714D02*
X72175714Y-91075714D01*
X71890000Y-91218571D01*
X71747142Y-91504285D01*
X71747142Y-92075714D01*
X71890000Y-92361428D01*
X73604285Y-91075714D02*
X73747142Y-91361428D01*
X73747142Y-92075714D01*
X73604285Y-92361428D01*
X73318571Y-92504285D01*
X73032857Y-92504285D01*
X72747142Y-92361428D01*
X72604285Y-92075714D01*
X72604285Y-91361428D01*
X72461428Y-91075714D01*
X73747142Y-89647142D02*
X70747142Y-89647142D01*
X72604285Y-89361428D02*
X73747142Y-88504285D01*
X71747142Y-88504285D02*
X72890000Y-89647142D01*
X71747142Y-87647142D02*
X71747142Y-86504285D01*
X70747142Y-87218571D02*
X73318571Y-87218571D01*
X73604285Y-87075714D01*
X73747142Y-86790000D01*
X73747142Y-86504285D01*
D11*
X93105000Y-82430000D03*
X83505000Y-82430000D03*
D12*
X85805000Y-74930000D03*
X88305000Y-74930000D03*
D13*
X90805000Y-74930000D03*
D12*
X100330000Y-156050000D03*
X100330000Y-144650000D03*
X100330000Y-147750000D03*
X88265000Y-156050000D03*
X88265000Y-144650000D03*
X88265000Y-147750000D03*
X76200000Y-156050000D03*
X76200000Y-144650000D03*
X76200000Y-147750000D03*
X100330000Y-134145000D03*
X100330000Y-145545000D03*
X100330000Y-142445000D03*
X88265000Y-134145000D03*
X88265000Y-145545000D03*
X88265000Y-142445000D03*
X76200000Y-134145000D03*
X76200000Y-145545000D03*
X76200000Y-142445000D03*
X100330000Y-131920000D03*
X100330000Y-120520000D03*
X100330000Y-123620000D03*
X88265000Y-131920000D03*
X88265000Y-120520000D03*
X88265000Y-123620000D03*
X76200000Y-131920000D03*
X76200000Y-120520000D03*
X76200000Y-123620000D03*
D14*
X101600000Y-73660000D03*
X104140000Y-73660000D03*
X101600000Y-71120000D03*
X104140000Y-71120000D03*
X101600000Y-68580000D03*
X104140000Y-68580000D03*
X101600000Y-66040000D03*
X104140000Y-66040000D03*
X101600000Y-63500000D03*
X104140000Y-63500000D03*
X101600000Y-60960000D03*
X104140000Y-60960000D03*
X101600000Y-58420000D03*
X104140000Y-58420000D03*
X101600000Y-55880000D03*
D15*
X104140000Y-55880000D03*
D14*
X74930000Y-55880000D03*
X72390000Y-55880000D03*
X74930000Y-58420000D03*
X72390000Y-58420000D03*
X74930000Y-60960000D03*
X72390000Y-60960000D03*
X74930000Y-63500000D03*
X72390000Y-63500000D03*
X74930000Y-66040000D03*
X72390000Y-66040000D03*
X74930000Y-68580000D03*
X72390000Y-68580000D03*
X74930000Y-71120000D03*
X72390000Y-71120000D03*
X74930000Y-73660000D03*
D15*
X72390000Y-73660000D03*
D16*
X104775000Y-85725000D03*
D17*
X104775000Y-78105000D03*
D16*
X100965000Y-85725000D03*
D17*
X100965000Y-78105000D03*
D12*
X92710000Y-113030000D03*
D13*
X95250000Y-113030000D03*
D12*
X86995000Y-113030000D03*
D13*
X89535000Y-113030000D03*
D12*
X81280000Y-113030000D03*
D13*
X83820000Y-113030000D03*
D12*
X92710000Y-107315000D03*
D13*
X95250000Y-107315000D03*
D12*
X86995000Y-107315000D03*
D13*
X89535000Y-107315000D03*
D12*
X81280000Y-107315000D03*
D13*
X83820000Y-107315000D03*
D12*
X92710000Y-101600000D03*
D13*
X95250000Y-101600000D03*
D12*
X86995000Y-101600000D03*
D13*
X89535000Y-101600000D03*
D12*
X81280000Y-101600000D03*
D13*
X83820000Y-101600000D03*
D18*
G36*
X106344504Y-97626204D02*
G01*
X106368773Y-97629804D01*
X106392571Y-97635765D01*
X106415671Y-97644030D01*
X106437849Y-97654520D01*
X106458893Y-97667133D01*
X106478598Y-97681747D01*
X106496777Y-97698223D01*
X106513253Y-97716402D01*
X106527867Y-97736107D01*
X106540480Y-97757151D01*
X106550970Y-97779329D01*
X106559235Y-97802429D01*
X106565196Y-97826227D01*
X106568796Y-97850496D01*
X106570000Y-97875000D01*
X106570000Y-98975000D01*
X106568796Y-98999504D01*
X106565196Y-99023773D01*
X106559235Y-99047571D01*
X106550970Y-99070671D01*
X106540480Y-99092849D01*
X106527867Y-99113893D01*
X106513253Y-99133598D01*
X106496777Y-99151777D01*
X106478598Y-99168253D01*
X106458893Y-99182867D01*
X106437849Y-99195480D01*
X106415671Y-99205970D01*
X106392571Y-99214235D01*
X106368773Y-99220196D01*
X106344504Y-99223796D01*
X106320000Y-99225000D01*
X103820000Y-99225000D01*
X103795496Y-99223796D01*
X103771227Y-99220196D01*
X103747429Y-99214235D01*
X103724329Y-99205970D01*
X103702151Y-99195480D01*
X103681107Y-99182867D01*
X103661402Y-99168253D01*
X103643223Y-99151777D01*
X103626747Y-99133598D01*
X103612133Y-99113893D01*
X103599520Y-99092849D01*
X103589030Y-99070671D01*
X103580765Y-99047571D01*
X103574804Y-99023773D01*
X103571204Y-98999504D01*
X103570000Y-98975000D01*
X103570000Y-97875000D01*
X103571204Y-97850496D01*
X103574804Y-97826227D01*
X103580765Y-97802429D01*
X103589030Y-97779329D01*
X103599520Y-97757151D01*
X103612133Y-97736107D01*
X103626747Y-97716402D01*
X103643223Y-97698223D01*
X103661402Y-97681747D01*
X103681107Y-97667133D01*
X103702151Y-97654520D01*
X103724329Y-97644030D01*
X103747429Y-97635765D01*
X103771227Y-97629804D01*
X103795496Y-97626204D01*
X103820000Y-97625000D01*
X106320000Y-97625000D01*
X106344504Y-97626204D01*
X106344504Y-97626204D01*
G37*
D19*
X105070000Y-98425000D03*
D18*
G36*
X101944504Y-97626204D02*
G01*
X101968773Y-97629804D01*
X101992571Y-97635765D01*
X102015671Y-97644030D01*
X102037849Y-97654520D01*
X102058893Y-97667133D01*
X102078598Y-97681747D01*
X102096777Y-97698223D01*
X102113253Y-97716402D01*
X102127867Y-97736107D01*
X102140480Y-97757151D01*
X102150970Y-97779329D01*
X102159235Y-97802429D01*
X102165196Y-97826227D01*
X102168796Y-97850496D01*
X102170000Y-97875000D01*
X102170000Y-98975000D01*
X102168796Y-98999504D01*
X102165196Y-99023773D01*
X102159235Y-99047571D01*
X102150970Y-99070671D01*
X102140480Y-99092849D01*
X102127867Y-99113893D01*
X102113253Y-99133598D01*
X102096777Y-99151777D01*
X102078598Y-99168253D01*
X102058893Y-99182867D01*
X102037849Y-99195480D01*
X102015671Y-99205970D01*
X101992571Y-99214235D01*
X101968773Y-99220196D01*
X101944504Y-99223796D01*
X101920000Y-99225000D01*
X99420000Y-99225000D01*
X99395496Y-99223796D01*
X99371227Y-99220196D01*
X99347429Y-99214235D01*
X99324329Y-99205970D01*
X99302151Y-99195480D01*
X99281107Y-99182867D01*
X99261402Y-99168253D01*
X99243223Y-99151777D01*
X99226747Y-99133598D01*
X99212133Y-99113893D01*
X99199520Y-99092849D01*
X99189030Y-99070671D01*
X99180765Y-99047571D01*
X99174804Y-99023773D01*
X99171204Y-98999504D01*
X99170000Y-98975000D01*
X99170000Y-97875000D01*
X99171204Y-97850496D01*
X99174804Y-97826227D01*
X99180765Y-97802429D01*
X99189030Y-97779329D01*
X99199520Y-97757151D01*
X99212133Y-97736107D01*
X99226747Y-97716402D01*
X99243223Y-97698223D01*
X99261402Y-97681747D01*
X99281107Y-97667133D01*
X99302151Y-97654520D01*
X99324329Y-97644030D01*
X99347429Y-97635765D01*
X99371227Y-97629804D01*
X99395496Y-97626204D01*
X99420000Y-97625000D01*
X101920000Y-97625000D01*
X101944504Y-97626204D01*
X101944504Y-97626204D01*
G37*
D19*
X100670000Y-98425000D03*
D18*
G36*
X106344504Y-90641204D02*
G01*
X106368773Y-90644804D01*
X106392571Y-90650765D01*
X106415671Y-90659030D01*
X106437849Y-90669520D01*
X106458893Y-90682133D01*
X106478598Y-90696747D01*
X106496777Y-90713223D01*
X106513253Y-90731402D01*
X106527867Y-90751107D01*
X106540480Y-90772151D01*
X106550970Y-90794329D01*
X106559235Y-90817429D01*
X106565196Y-90841227D01*
X106568796Y-90865496D01*
X106570000Y-90890000D01*
X106570000Y-91990000D01*
X106568796Y-92014504D01*
X106565196Y-92038773D01*
X106559235Y-92062571D01*
X106550970Y-92085671D01*
X106540480Y-92107849D01*
X106527867Y-92128893D01*
X106513253Y-92148598D01*
X106496777Y-92166777D01*
X106478598Y-92183253D01*
X106458893Y-92197867D01*
X106437849Y-92210480D01*
X106415671Y-92220970D01*
X106392571Y-92229235D01*
X106368773Y-92235196D01*
X106344504Y-92238796D01*
X106320000Y-92240000D01*
X103820000Y-92240000D01*
X103795496Y-92238796D01*
X103771227Y-92235196D01*
X103747429Y-92229235D01*
X103724329Y-92220970D01*
X103702151Y-92210480D01*
X103681107Y-92197867D01*
X103661402Y-92183253D01*
X103643223Y-92166777D01*
X103626747Y-92148598D01*
X103612133Y-92128893D01*
X103599520Y-92107849D01*
X103589030Y-92085671D01*
X103580765Y-92062571D01*
X103574804Y-92038773D01*
X103571204Y-92014504D01*
X103570000Y-91990000D01*
X103570000Y-90890000D01*
X103571204Y-90865496D01*
X103574804Y-90841227D01*
X103580765Y-90817429D01*
X103589030Y-90794329D01*
X103599520Y-90772151D01*
X103612133Y-90751107D01*
X103626747Y-90731402D01*
X103643223Y-90713223D01*
X103661402Y-90696747D01*
X103681107Y-90682133D01*
X103702151Y-90669520D01*
X103724329Y-90659030D01*
X103747429Y-90650765D01*
X103771227Y-90644804D01*
X103795496Y-90641204D01*
X103820000Y-90640000D01*
X106320000Y-90640000D01*
X106344504Y-90641204D01*
X106344504Y-90641204D01*
G37*
D19*
X105070000Y-91440000D03*
D18*
G36*
X101944504Y-90641204D02*
G01*
X101968773Y-90644804D01*
X101992571Y-90650765D01*
X102015671Y-90659030D01*
X102037849Y-90669520D01*
X102058893Y-90682133D01*
X102078598Y-90696747D01*
X102096777Y-90713223D01*
X102113253Y-90731402D01*
X102127867Y-90751107D01*
X102140480Y-90772151D01*
X102150970Y-90794329D01*
X102159235Y-90817429D01*
X102165196Y-90841227D01*
X102168796Y-90865496D01*
X102170000Y-90890000D01*
X102170000Y-91990000D01*
X102168796Y-92014504D01*
X102165196Y-92038773D01*
X102159235Y-92062571D01*
X102150970Y-92085671D01*
X102140480Y-92107849D01*
X102127867Y-92128893D01*
X102113253Y-92148598D01*
X102096777Y-92166777D01*
X102078598Y-92183253D01*
X102058893Y-92197867D01*
X102037849Y-92210480D01*
X102015671Y-92220970D01*
X101992571Y-92229235D01*
X101968773Y-92235196D01*
X101944504Y-92238796D01*
X101920000Y-92240000D01*
X99420000Y-92240000D01*
X99395496Y-92238796D01*
X99371227Y-92235196D01*
X99347429Y-92229235D01*
X99324329Y-92220970D01*
X99302151Y-92210480D01*
X99281107Y-92197867D01*
X99261402Y-92183253D01*
X99243223Y-92166777D01*
X99226747Y-92148598D01*
X99212133Y-92128893D01*
X99199520Y-92107849D01*
X99189030Y-92085671D01*
X99180765Y-92062571D01*
X99174804Y-92038773D01*
X99171204Y-92014504D01*
X99170000Y-91990000D01*
X99170000Y-90890000D01*
X99171204Y-90865496D01*
X99174804Y-90841227D01*
X99180765Y-90817429D01*
X99189030Y-90794329D01*
X99199520Y-90772151D01*
X99212133Y-90751107D01*
X99226747Y-90731402D01*
X99243223Y-90713223D01*
X99261402Y-90696747D01*
X99281107Y-90682133D01*
X99302151Y-90669520D01*
X99324329Y-90659030D01*
X99347429Y-90650765D01*
X99371227Y-90644804D01*
X99395496Y-90641204D01*
X99420000Y-90640000D01*
X101920000Y-90640000D01*
X101944504Y-90641204D01*
X101944504Y-90641204D01*
G37*
D19*
X100670000Y-91440000D03*
D20*
X80645000Y-55880000D03*
X95885000Y-55880000D03*
X95885000Y-96520000D03*
X80645000Y-96520000D03*
D21*
X95885000Y-58420000D03*
X80645000Y-58420000D03*
X95885000Y-93980000D03*
X80645000Y-60960000D03*
X95885000Y-91440000D03*
X80645000Y-63500000D03*
X95885000Y-88900000D03*
X80645000Y-66040000D03*
X95885000Y-86360000D03*
X80645000Y-68580000D03*
X95885000Y-83820000D03*
X80645000Y-71120000D03*
X95885000Y-81280000D03*
X80645000Y-73660000D03*
X95885000Y-78740000D03*
X80645000Y-76200000D03*
X95885000Y-76200000D03*
X80645000Y-78740000D03*
X95885000Y-73660000D03*
X80645000Y-81280000D03*
X95885000Y-71120000D03*
X80645000Y-83820000D03*
X95885000Y-68580000D03*
X80645000Y-86360000D03*
X95885000Y-66040000D03*
X80645000Y-88900000D03*
X95885000Y-63500000D03*
X80645000Y-91440000D03*
X95885000Y-60960000D03*
D22*
X80645000Y-93980000D03*
M02*
