M48
; DRILL file {KiCad (5.1.2)-1} date 10/29/19 22:05:35
; FORMAT={-:-/ absolute / inch / decimal}
; #@! TF.CreationDate,2019-10-29T22:05:35+01:00
; #@! TF.GenerationSoftware,Kicad,Pcbnew,(5.1.2)-1
; #@! TF.FileFunction,Plated,1,2,PTH
FMAT,2
INCH
T1C0.0157
T2C0.0315
T3C0.0354
T4C0.0394
T5C0.0433
T6C0.0630
%
G90
G05
T1
X3.0144Y-3.65
X3.0149Y-4.352
X3.025Y-2.55
X3.0715Y-4.15
X3.0715Y-4.375
X3.1Y-3.925
X3.15Y-4.15
X3.15Y-4.375
X3.225Y-3.75
X3.25Y-5.2
X3.25Y-6.15
X3.35Y-3.7215
X3.35Y-3.925
X3.35Y-4.15
X3.35Y-4.375
X3.375Y-2.5
X3.3778Y-4.3472
X3.4Y-4.1
X3.4071Y-3.7785
X3.425Y-2.6
X3.4356Y-3.65
X3.475Y-2.6
X3.475Y-4.65
X3.525Y-2.4715
X3.525Y-3.75
X3.5336Y-5.2011
X3.5336Y-6.1511
X3.5447Y-4.1
X3.5447Y-4.35
X3.575Y-2.55
X3.575Y-3.4
X3.575Y-3.875
X3.6018Y-4.1
X3.7Y-2.3272
X3.725Y-3.725
X3.725Y-5.2
X3.725Y-6.15
X3.7821Y-4.65
X3.7965Y-3.875
X3.7998Y-4.35
X3.825Y-4.15
X3.85Y-2.35
X3.8535Y-3.875
X3.95Y-4.45
X4.0086Y-5.2011
X4.0086Y-6.1511
X4.1465Y-4.0
X4.175Y-2.6
X4.175Y-2.975
X4.175Y-3.65
X4.175Y-3.925
X4.175Y-4.45
X4.1939Y-3.0189
X4.2Y-2.15
X4.2224Y-2.7
T2
X3.175Y-2.3
X3.175Y-2.4
X3.175Y-2.5
X3.175Y-2.6
X3.175Y-2.7
X3.175Y-2.8
X3.175Y-2.9
X3.175Y-3.0
X3.175Y-3.1
X3.175Y-3.2
X3.175Y-3.3
X3.175Y-3.4
X3.175Y-3.5
X3.175Y-3.6
X3.175Y-3.7
X3.775Y-2.3
X3.775Y-2.4
X3.775Y-2.5
X3.775Y-2.6
X3.775Y-2.7
X3.775Y-2.8
X3.775Y-2.9
X3.775Y-3.0
X3.775Y-3.1
X3.775Y-3.2
X3.775Y-3.3
X3.775Y-3.4
X3.775Y-3.5
X3.775Y-3.6
X3.775Y-3.7
T3
X3.2Y-4.45
X3.3Y-4.45
X3.65Y-4.45
X3.75Y-4.45
X3.425Y-4.0
X3.525Y-4.0
X3.65Y-4.225
X3.75Y-4.225
X3.2Y-4.225
X3.3Y-4.225
X3.425Y-4.225
X3.525Y-4.225
X3.425Y-4.45
X3.525Y-4.45
X3.2Y-4.0
X3.3Y-4.0
X3.65Y-4.0
X3.75Y-4.0
T4
X3.3781Y-2.95
X3.4766Y-2.95
X3.575Y-2.95
X2.85Y-2.2
X2.85Y-2.3
X2.85Y-2.4
X2.85Y-2.5
X2.85Y-2.6
X2.85Y-2.7
X2.85Y-2.8
X2.85Y-2.9
X2.95Y-2.2
X2.95Y-2.3
X2.95Y-2.4
X2.95Y-2.5
X2.95Y-2.6
X2.95Y-2.7
X2.95Y-2.8
X2.95Y-2.9
X4.0Y-2.2
X4.0Y-2.3
X4.0Y-2.4
X4.0Y-2.5
X4.0Y-2.6
X4.0Y-2.7
X4.0Y-2.8
X4.0Y-2.9
X4.1Y-2.2
X4.1Y-2.3
X4.1Y-2.4
X4.1Y-2.5
X4.1Y-2.6
X4.1Y-2.7
X4.1Y-2.8
X4.1Y-2.9
T5
X4.125Y-3.075
X4.125Y-3.375
X3.975Y-3.075
X3.975Y-3.375
T6
X3.95Y-5.6949
X3.95Y-5.8169
X3.95Y-6.1437
X3.475Y-4.7449
X3.475Y-4.8669
X3.475Y-5.1937
X3.0Y-5.2813
X3.0Y-5.6081
X3.0Y-5.7301
X3.475Y-5.6949
X3.475Y-5.8169
X3.475Y-6.1437
X3.95Y-5.2813
X3.95Y-5.6081
X3.95Y-5.7301
X3.95Y-4.7449
X3.95Y-4.8669
X3.95Y-5.1937
X3.0Y-4.7449
X3.0Y-4.8669
X3.0Y-5.1937
X3.0Y-5.6949
X3.0Y-5.8169
X3.0Y-6.1437
X3.475Y-5.2813
X3.475Y-5.6081
X3.475Y-5.7301
T5
G00X3.2876Y-3.2315
M15
G01X3.2876Y-3.2591
M16
G05
G00X3.6656Y-3.2315
M15
G01X3.6656Y-3.2591
M16
G05
T0
M30
