G04 #@! TF.GenerationSoftware,KiCad,Pcbnew,(5.1.2)-1*
G04 #@! TF.CreationDate,2019-10-29T22:05:20+01:00*
G04 #@! TF.ProjectId,takt,74616b74-2e6b-4696-9361-645f70636258,rev?*
G04 #@! TF.SameCoordinates,Original*
G04 #@! TF.FileFunction,Legend,Top*
G04 #@! TF.FilePolarity,Positive*
%FSLAX46Y46*%
G04 Gerber Fmt 4.6, Leading zero omitted, Abs format (unit mm)*
G04 Created by KiCad (PCBNEW (5.1.2)-1) date 2019-10-29 22:05:20*
%MOMM*%
%LPD*%
G04 APERTURE LIST*
%ADD10C,0.120000*%
%ADD11C,0.150000*%
G04 APERTURE END LIST*
D10*
X86645000Y-75810000D02*
X87475000Y-75810000D01*
X89095000Y-75810000D02*
X89625000Y-75810000D01*
X91995000Y-75810000D02*
X93175000Y-75810000D01*
X83435000Y-75810000D02*
X83435000Y-80530000D01*
X93175000Y-84340000D02*
X93175000Y-87400000D01*
X93185000Y-75810000D02*
X93185000Y-80530000D01*
X83435000Y-84340000D02*
X83435000Y-87400000D01*
X83435000Y-75810000D02*
X84925000Y-75810000D01*
X83435000Y-87400000D02*
X93175000Y-87400000D01*
D11*
X104830000Y-157330000D02*
X95830000Y-157330000D01*
X104830000Y-146430000D02*
X95830000Y-146430000D01*
X104830000Y-157330000D02*
X104830000Y-146430000D01*
X95830000Y-157330000D02*
X95830000Y-146430000D01*
X102130000Y-151130000D02*
G75*
G03X102130000Y-151130000I-1800000J0D01*
G01*
X100330000Y-152930000D02*
X100330000Y-149330000D01*
X102130000Y-151130000D02*
X98530000Y-151130000D01*
X92765000Y-157330000D02*
X83765000Y-157330000D01*
X92765000Y-146430000D02*
X83765000Y-146430000D01*
X92765000Y-157330000D02*
X92765000Y-146430000D01*
X83765000Y-157330000D02*
X83765000Y-146430000D01*
X90065000Y-151130000D02*
G75*
G03X90065000Y-151130000I-1800000J0D01*
G01*
X88265000Y-152930000D02*
X88265000Y-149330000D01*
X90065000Y-151130000D02*
X86465000Y-151130000D01*
X80700000Y-157330000D02*
X71700000Y-157330000D01*
X80700000Y-146430000D02*
X71700000Y-146430000D01*
X80700000Y-157330000D02*
X80700000Y-146430000D01*
X71700000Y-157330000D02*
X71700000Y-146430000D01*
X78000000Y-151130000D02*
G75*
G03X78000000Y-151130000I-1800000J0D01*
G01*
X76200000Y-152930000D02*
X76200000Y-149330000D01*
X78000000Y-151130000D02*
X74400000Y-151130000D01*
X95830000Y-132865000D02*
X104830000Y-132865000D01*
X95830000Y-143765000D02*
X104830000Y-143765000D01*
X95830000Y-132865000D02*
X95830000Y-143765000D01*
X104830000Y-132865000D02*
X104830000Y-143765000D01*
X102130000Y-139065000D02*
G75*
G03X102130000Y-139065000I-1800000J0D01*
G01*
X100330000Y-137265000D02*
X100330000Y-140865000D01*
X98530000Y-139065000D02*
X102130000Y-139065000D01*
X83765000Y-132865000D02*
X92765000Y-132865000D01*
X83765000Y-143765000D02*
X92765000Y-143765000D01*
X83765000Y-132865000D02*
X83765000Y-143765000D01*
X92765000Y-132865000D02*
X92765000Y-143765000D01*
X90065000Y-139065000D02*
G75*
G03X90065000Y-139065000I-1800000J0D01*
G01*
X88265000Y-137265000D02*
X88265000Y-140865000D01*
X86465000Y-139065000D02*
X90065000Y-139065000D01*
X71700000Y-132865000D02*
X80700000Y-132865000D01*
X71700000Y-143765000D02*
X80700000Y-143765000D01*
X71700000Y-132865000D02*
X71700000Y-143765000D01*
X80700000Y-132865000D02*
X80700000Y-143765000D01*
X78000000Y-139065000D02*
G75*
G03X78000000Y-139065000I-1800000J0D01*
G01*
X76200000Y-137265000D02*
X76200000Y-140865000D01*
X74400000Y-139065000D02*
X78000000Y-139065000D01*
X104830000Y-133200000D02*
X95830000Y-133200000D01*
X104830000Y-122300000D02*
X95830000Y-122300000D01*
X104830000Y-133200000D02*
X104830000Y-122300000D01*
X95830000Y-133200000D02*
X95830000Y-122300000D01*
X102130000Y-127000000D02*
G75*
G03X102130000Y-127000000I-1800000J0D01*
G01*
X100330000Y-128800000D02*
X100330000Y-125200000D01*
X102130000Y-127000000D02*
X98530000Y-127000000D01*
X92765000Y-133200000D02*
X83765000Y-133200000D01*
X92765000Y-122300000D02*
X83765000Y-122300000D01*
X92765000Y-133200000D02*
X92765000Y-122300000D01*
X83765000Y-133200000D02*
X83765000Y-122300000D01*
X90065000Y-127000000D02*
G75*
G03X90065000Y-127000000I-1800000J0D01*
G01*
X88265000Y-128800000D02*
X88265000Y-125200000D01*
X90065000Y-127000000D02*
X86465000Y-127000000D01*
X80700000Y-133200000D02*
X71700000Y-133200000D01*
X80700000Y-122300000D02*
X71700000Y-122300000D01*
X80700000Y-133200000D02*
X80700000Y-122300000D01*
X71700000Y-133200000D02*
X71700000Y-122300000D01*
X78000000Y-127000000D02*
G75*
G03X78000000Y-127000000I-1800000J0D01*
G01*
X76200000Y-128800000D02*
X76200000Y-125200000D01*
X78000000Y-127000000D02*
X74400000Y-127000000D01*
D10*
X106245000Y-79975000D02*
X103305000Y-79975000D01*
X106245000Y-80215000D02*
X103305000Y-80215000D01*
X106245000Y-80095000D02*
X103305000Y-80095000D01*
X103305000Y-84635000D02*
X103435000Y-84635000D01*
X103305000Y-79195000D02*
X103305000Y-84635000D01*
X103435000Y-79195000D02*
X103305000Y-79195000D01*
X106245000Y-84635000D02*
X106115000Y-84635000D01*
X106245000Y-79195000D02*
X106245000Y-84635000D01*
X106115000Y-79195000D02*
X106245000Y-79195000D01*
X102435000Y-79975000D02*
X99495000Y-79975000D01*
X102435000Y-80215000D02*
X99495000Y-80215000D01*
X102435000Y-80095000D02*
X99495000Y-80095000D01*
X99495000Y-84635000D02*
X99625000Y-84635000D01*
X99495000Y-79195000D02*
X99495000Y-84635000D01*
X99625000Y-79195000D02*
X99495000Y-79195000D01*
X102435000Y-84635000D02*
X102305000Y-84635000D01*
X102435000Y-79195000D02*
X102435000Y-84635000D01*
X102305000Y-79195000D02*
X102435000Y-79195000D01*
X95540000Y-111950000D02*
X95540000Y-111794000D01*
X95540000Y-114266000D02*
X95540000Y-114110000D01*
X92938870Y-111950163D02*
G75*
G02X95020961Y-111950000I1041130J-1079837D01*
G01*
X92938870Y-114109837D02*
G75*
G03X95020961Y-114110000I1041130J1079837D01*
G01*
X92307665Y-111951392D02*
G75*
G02X95540000Y-111794484I1672335J-1078608D01*
G01*
X92307665Y-114108608D02*
G75*
G03X95540000Y-114265516I1672335J1078608D01*
G01*
X89825000Y-111950000D02*
X89825000Y-111794000D01*
X89825000Y-114266000D02*
X89825000Y-114110000D01*
X87223870Y-111950163D02*
G75*
G02X89305961Y-111950000I1041130J-1079837D01*
G01*
X87223870Y-114109837D02*
G75*
G03X89305961Y-114110000I1041130J1079837D01*
G01*
X86592665Y-111951392D02*
G75*
G02X89825000Y-111794484I1672335J-1078608D01*
G01*
X86592665Y-114108608D02*
G75*
G03X89825000Y-114265516I1672335J1078608D01*
G01*
X84110000Y-111950000D02*
X84110000Y-111794000D01*
X84110000Y-114266000D02*
X84110000Y-114110000D01*
X81508870Y-111950163D02*
G75*
G02X83590961Y-111950000I1041130J-1079837D01*
G01*
X81508870Y-114109837D02*
G75*
G03X83590961Y-114110000I1041130J1079837D01*
G01*
X80877665Y-111951392D02*
G75*
G02X84110000Y-111794484I1672335J-1078608D01*
G01*
X80877665Y-114108608D02*
G75*
G03X84110000Y-114265516I1672335J1078608D01*
G01*
X95540000Y-106235000D02*
X95540000Y-106079000D01*
X95540000Y-108551000D02*
X95540000Y-108395000D01*
X92938870Y-106235163D02*
G75*
G02X95020961Y-106235000I1041130J-1079837D01*
G01*
X92938870Y-108394837D02*
G75*
G03X95020961Y-108395000I1041130J1079837D01*
G01*
X92307665Y-106236392D02*
G75*
G02X95540000Y-106079484I1672335J-1078608D01*
G01*
X92307665Y-108393608D02*
G75*
G03X95540000Y-108550516I1672335J1078608D01*
G01*
X89825000Y-106235000D02*
X89825000Y-106079000D01*
X89825000Y-108551000D02*
X89825000Y-108395000D01*
X87223870Y-106235163D02*
G75*
G02X89305961Y-106235000I1041130J-1079837D01*
G01*
X87223870Y-108394837D02*
G75*
G03X89305961Y-108395000I1041130J1079837D01*
G01*
X86592665Y-106236392D02*
G75*
G02X89825000Y-106079484I1672335J-1078608D01*
G01*
X86592665Y-108393608D02*
G75*
G03X89825000Y-108550516I1672335J1078608D01*
G01*
X84110000Y-106235000D02*
X84110000Y-106079000D01*
X84110000Y-108551000D02*
X84110000Y-108395000D01*
X81508870Y-106235163D02*
G75*
G02X83590961Y-106235000I1041130J-1079837D01*
G01*
X81508870Y-108394837D02*
G75*
G03X83590961Y-108395000I1041130J1079837D01*
G01*
X80877665Y-106236392D02*
G75*
G02X84110000Y-106079484I1672335J-1078608D01*
G01*
X80877665Y-108393608D02*
G75*
G03X84110000Y-108550516I1672335J1078608D01*
G01*
X95540000Y-100520000D02*
X95540000Y-100364000D01*
X95540000Y-102836000D02*
X95540000Y-102680000D01*
X92938870Y-100520163D02*
G75*
G02X95020961Y-100520000I1041130J-1079837D01*
G01*
X92938870Y-102679837D02*
G75*
G03X95020961Y-102680000I1041130J1079837D01*
G01*
X92307665Y-100521392D02*
G75*
G02X95540000Y-100364484I1672335J-1078608D01*
G01*
X92307665Y-102678608D02*
G75*
G03X95540000Y-102835516I1672335J1078608D01*
G01*
X89825000Y-100520000D02*
X89825000Y-100364000D01*
X89825000Y-102836000D02*
X89825000Y-102680000D01*
X87223870Y-100520163D02*
G75*
G02X89305961Y-100520000I1041130J-1079837D01*
G01*
X87223870Y-102679837D02*
G75*
G03X89305961Y-102680000I1041130J1079837D01*
G01*
X86592665Y-100521392D02*
G75*
G02X89825000Y-100364484I1672335J-1078608D01*
G01*
X86592665Y-102678608D02*
G75*
G03X89825000Y-102835516I1672335J1078608D01*
G01*
X84110000Y-100520000D02*
X84110000Y-100364000D01*
X84110000Y-102836000D02*
X84110000Y-102680000D01*
X81508870Y-100520163D02*
G75*
G02X83590961Y-100520000I1041130J-1079837D01*
G01*
X81508870Y-102679837D02*
G75*
G03X83590961Y-102680000I1041130J1079837D01*
G01*
X80877665Y-100521392D02*
G75*
G02X84110000Y-100364484I1672335J-1078608D01*
G01*
X80877665Y-102678608D02*
G75*
G03X84110000Y-102835516I1672335J1078608D01*
G01*
X99557500Y-96427500D02*
X99557500Y-97052500D01*
X99245000Y-96740000D02*
X99870000Y-96740000D01*
X100110000Y-100120563D02*
X101174437Y-101185000D01*
X100110000Y-96729437D02*
X101174437Y-95665000D01*
X100110000Y-96729437D02*
X100110000Y-97365000D01*
X100110000Y-100120563D02*
X100110000Y-99485000D01*
X101174437Y-101185000D02*
X105630000Y-101185000D01*
X101174437Y-95665000D02*
X105630000Y-95665000D01*
X105630000Y-95665000D02*
X105630000Y-97365000D01*
X105630000Y-101185000D02*
X105630000Y-99485000D01*
X99557500Y-89442500D02*
X99557500Y-90067500D01*
X99245000Y-89755000D02*
X99870000Y-89755000D01*
X100110000Y-93135563D02*
X101174437Y-94200000D01*
X100110000Y-89744437D02*
X101174437Y-88680000D01*
X100110000Y-89744437D02*
X100110000Y-90380000D01*
X100110000Y-93135563D02*
X100110000Y-92500000D01*
X101174437Y-94200000D02*
X105630000Y-94200000D01*
X101174437Y-88680000D02*
X105630000Y-88680000D01*
X105630000Y-88680000D02*
X105630000Y-90380000D01*
X105630000Y-94200000D02*
X105630000Y-92500000D01*
D11*
X87669761Y-73477380D02*
X87336428Y-73001190D01*
X87098333Y-73477380D02*
X87098333Y-72477380D01*
X87479285Y-72477380D01*
X87574523Y-72525000D01*
X87622142Y-72572619D01*
X87669761Y-72667857D01*
X87669761Y-72810714D01*
X87622142Y-72905952D01*
X87574523Y-72953571D01*
X87479285Y-73001190D01*
X87098333Y-73001190D01*
X87955476Y-72477380D02*
X88288809Y-73477380D01*
X88622142Y-72477380D01*
X89479285Y-73477380D02*
X88907857Y-73477380D01*
X89193571Y-73477380D02*
X89193571Y-72477380D01*
X89098333Y-72620238D01*
X89003095Y-72715476D01*
X88907857Y-72763095D01*
X94281666Y-146772380D02*
X94281666Y-147486666D01*
X94234047Y-147629523D01*
X94138809Y-147724761D01*
X93995952Y-147772380D01*
X93900714Y-147772380D01*
X94805476Y-147772380D02*
X94995952Y-147772380D01*
X95091190Y-147724761D01*
X95138809Y-147677142D01*
X95234047Y-147534285D01*
X95281666Y-147343809D01*
X95281666Y-146962857D01*
X95234047Y-146867619D01*
X95186428Y-146820000D01*
X95091190Y-146772380D01*
X94900714Y-146772380D01*
X94805476Y-146820000D01*
X94757857Y-146867619D01*
X94710238Y-146962857D01*
X94710238Y-147200952D01*
X94757857Y-147296190D01*
X94805476Y-147343809D01*
X94900714Y-147391428D01*
X95091190Y-147391428D01*
X95186428Y-147343809D01*
X95234047Y-147296190D01*
X95281666Y-147200952D01*
X82216666Y-146772380D02*
X82216666Y-147486666D01*
X82169047Y-147629523D01*
X82073809Y-147724761D01*
X81930952Y-147772380D01*
X81835714Y-147772380D01*
X82835714Y-147200952D02*
X82740476Y-147153333D01*
X82692857Y-147105714D01*
X82645238Y-147010476D01*
X82645238Y-146962857D01*
X82692857Y-146867619D01*
X82740476Y-146820000D01*
X82835714Y-146772380D01*
X83026190Y-146772380D01*
X83121428Y-146820000D01*
X83169047Y-146867619D01*
X83216666Y-146962857D01*
X83216666Y-147010476D01*
X83169047Y-147105714D01*
X83121428Y-147153333D01*
X83026190Y-147200952D01*
X82835714Y-147200952D01*
X82740476Y-147248571D01*
X82692857Y-147296190D01*
X82645238Y-147391428D01*
X82645238Y-147581904D01*
X82692857Y-147677142D01*
X82740476Y-147724761D01*
X82835714Y-147772380D01*
X83026190Y-147772380D01*
X83121428Y-147724761D01*
X83169047Y-147677142D01*
X83216666Y-147581904D01*
X83216666Y-147391428D01*
X83169047Y-147296190D01*
X83121428Y-147248571D01*
X83026190Y-147200952D01*
X70151666Y-146772380D02*
X70151666Y-147486666D01*
X70104047Y-147629523D01*
X70008809Y-147724761D01*
X69865952Y-147772380D01*
X69770714Y-147772380D01*
X70532619Y-146772380D02*
X71199285Y-146772380D01*
X70770714Y-147772380D01*
X94281666Y-133437380D02*
X94281666Y-134151666D01*
X94234047Y-134294523D01*
X94138809Y-134389761D01*
X93995952Y-134437380D01*
X93900714Y-134437380D01*
X95186428Y-133437380D02*
X94995952Y-133437380D01*
X94900714Y-133485000D01*
X94853095Y-133532619D01*
X94757857Y-133675476D01*
X94710238Y-133865952D01*
X94710238Y-134246904D01*
X94757857Y-134342142D01*
X94805476Y-134389761D01*
X94900714Y-134437380D01*
X95091190Y-134437380D01*
X95186428Y-134389761D01*
X95234047Y-134342142D01*
X95281666Y-134246904D01*
X95281666Y-134008809D01*
X95234047Y-133913571D01*
X95186428Y-133865952D01*
X95091190Y-133818333D01*
X94900714Y-133818333D01*
X94805476Y-133865952D01*
X94757857Y-133913571D01*
X94710238Y-134008809D01*
X82216666Y-133437380D02*
X82216666Y-134151666D01*
X82169047Y-134294523D01*
X82073809Y-134389761D01*
X81930952Y-134437380D01*
X81835714Y-134437380D01*
X83169047Y-133437380D02*
X82692857Y-133437380D01*
X82645238Y-133913571D01*
X82692857Y-133865952D01*
X82788095Y-133818333D01*
X83026190Y-133818333D01*
X83121428Y-133865952D01*
X83169047Y-133913571D01*
X83216666Y-134008809D01*
X83216666Y-134246904D01*
X83169047Y-134342142D01*
X83121428Y-134389761D01*
X83026190Y-134437380D01*
X82788095Y-134437380D01*
X82692857Y-134389761D01*
X82645238Y-134342142D01*
X70151666Y-133437380D02*
X70151666Y-134151666D01*
X70104047Y-134294523D01*
X70008809Y-134389761D01*
X69865952Y-134437380D01*
X69770714Y-134437380D01*
X71056428Y-133770714D02*
X71056428Y-134437380D01*
X70818333Y-133389761D02*
X70580238Y-134104047D01*
X71199285Y-134104047D01*
X94281666Y-122642380D02*
X94281666Y-123356666D01*
X94234047Y-123499523D01*
X94138809Y-123594761D01*
X93995952Y-123642380D01*
X93900714Y-123642380D01*
X94662619Y-122642380D02*
X95281666Y-122642380D01*
X94948333Y-123023333D01*
X95091190Y-123023333D01*
X95186428Y-123070952D01*
X95234047Y-123118571D01*
X95281666Y-123213809D01*
X95281666Y-123451904D01*
X95234047Y-123547142D01*
X95186428Y-123594761D01*
X95091190Y-123642380D01*
X94805476Y-123642380D01*
X94710238Y-123594761D01*
X94662619Y-123547142D01*
X82216666Y-122642380D02*
X82216666Y-123356666D01*
X82169047Y-123499523D01*
X82073809Y-123594761D01*
X81930952Y-123642380D01*
X81835714Y-123642380D01*
X82645238Y-122737619D02*
X82692857Y-122690000D01*
X82788095Y-122642380D01*
X83026190Y-122642380D01*
X83121428Y-122690000D01*
X83169047Y-122737619D01*
X83216666Y-122832857D01*
X83216666Y-122928095D01*
X83169047Y-123070952D01*
X82597619Y-123642380D01*
X83216666Y-123642380D01*
X70151666Y-122642380D02*
X70151666Y-123356666D01*
X70104047Y-123499523D01*
X70008809Y-123594761D01*
X69865952Y-123642380D01*
X69770714Y-123642380D01*
X71151666Y-123642380D02*
X70580238Y-123642380D01*
X70865952Y-123642380D02*
X70865952Y-122642380D01*
X70770714Y-122785238D01*
X70675476Y-122880476D01*
X70580238Y-122928095D01*
X107697380Y-83129285D02*
X106697380Y-83129285D01*
X106697380Y-82891190D01*
X106745000Y-82748333D01*
X106840238Y-82653095D01*
X106935476Y-82605476D01*
X107125952Y-82557857D01*
X107268809Y-82557857D01*
X107459285Y-82605476D01*
X107554523Y-82653095D01*
X107649761Y-82748333D01*
X107697380Y-82891190D01*
X107697380Y-83129285D01*
X107697380Y-81605476D02*
X107697380Y-82176904D01*
X107697380Y-81891190D02*
X106697380Y-81891190D01*
X106840238Y-81986428D01*
X106935476Y-82081666D01*
X106983095Y-82176904D01*
X107697380Y-80653095D02*
X107697380Y-81224523D01*
X107697380Y-80938809D02*
X106697380Y-80938809D01*
X106840238Y-81034047D01*
X106935476Y-81129285D01*
X106983095Y-81224523D01*
X98877380Y-83129285D02*
X97877380Y-83129285D01*
X97877380Y-82891190D01*
X97925000Y-82748333D01*
X98020238Y-82653095D01*
X98115476Y-82605476D01*
X98305952Y-82557857D01*
X98448809Y-82557857D01*
X98639285Y-82605476D01*
X98734523Y-82653095D01*
X98829761Y-82748333D01*
X98877380Y-82891190D01*
X98877380Y-83129285D01*
X98877380Y-81605476D02*
X98877380Y-82176904D01*
X98877380Y-81891190D02*
X97877380Y-81891190D01*
X98020238Y-81986428D01*
X98115476Y-82081666D01*
X98163095Y-82176904D01*
X97877380Y-80986428D02*
X97877380Y-80891190D01*
X97925000Y-80795952D01*
X97972619Y-80748333D01*
X98067857Y-80700714D01*
X98258333Y-80653095D01*
X98496428Y-80653095D01*
X98686904Y-80700714D01*
X98782142Y-80748333D01*
X98829761Y-80795952D01*
X98877380Y-80891190D01*
X98877380Y-80986428D01*
X98829761Y-81081666D01*
X98782142Y-81129285D01*
X98686904Y-81176904D01*
X98496428Y-81224523D01*
X98258333Y-81224523D01*
X98067857Y-81176904D01*
X97972619Y-81129285D01*
X97925000Y-81081666D01*
X97877380Y-80986428D01*
X93241904Y-110942380D02*
X93241904Y-109942380D01*
X93480000Y-109942380D01*
X93622857Y-109990000D01*
X93718095Y-110085238D01*
X93765714Y-110180476D01*
X93813333Y-110370952D01*
X93813333Y-110513809D01*
X93765714Y-110704285D01*
X93718095Y-110799523D01*
X93622857Y-110894761D01*
X93480000Y-110942380D01*
X93241904Y-110942380D01*
X94289523Y-110942380D02*
X94480000Y-110942380D01*
X94575238Y-110894761D01*
X94622857Y-110847142D01*
X94718095Y-110704285D01*
X94765714Y-110513809D01*
X94765714Y-110132857D01*
X94718095Y-110037619D01*
X94670476Y-109990000D01*
X94575238Y-109942380D01*
X94384761Y-109942380D01*
X94289523Y-109990000D01*
X94241904Y-110037619D01*
X94194285Y-110132857D01*
X94194285Y-110370952D01*
X94241904Y-110466190D01*
X94289523Y-110513809D01*
X94384761Y-110561428D01*
X94575238Y-110561428D01*
X94670476Y-110513809D01*
X94718095Y-110466190D01*
X94765714Y-110370952D01*
X87526904Y-110942380D02*
X87526904Y-109942380D01*
X87765000Y-109942380D01*
X87907857Y-109990000D01*
X88003095Y-110085238D01*
X88050714Y-110180476D01*
X88098333Y-110370952D01*
X88098333Y-110513809D01*
X88050714Y-110704285D01*
X88003095Y-110799523D01*
X87907857Y-110894761D01*
X87765000Y-110942380D01*
X87526904Y-110942380D01*
X88669761Y-110370952D02*
X88574523Y-110323333D01*
X88526904Y-110275714D01*
X88479285Y-110180476D01*
X88479285Y-110132857D01*
X88526904Y-110037619D01*
X88574523Y-109990000D01*
X88669761Y-109942380D01*
X88860238Y-109942380D01*
X88955476Y-109990000D01*
X89003095Y-110037619D01*
X89050714Y-110132857D01*
X89050714Y-110180476D01*
X89003095Y-110275714D01*
X88955476Y-110323333D01*
X88860238Y-110370952D01*
X88669761Y-110370952D01*
X88574523Y-110418571D01*
X88526904Y-110466190D01*
X88479285Y-110561428D01*
X88479285Y-110751904D01*
X88526904Y-110847142D01*
X88574523Y-110894761D01*
X88669761Y-110942380D01*
X88860238Y-110942380D01*
X88955476Y-110894761D01*
X89003095Y-110847142D01*
X89050714Y-110751904D01*
X89050714Y-110561428D01*
X89003095Y-110466190D01*
X88955476Y-110418571D01*
X88860238Y-110370952D01*
X81811904Y-110942380D02*
X81811904Y-109942380D01*
X82050000Y-109942380D01*
X82192857Y-109990000D01*
X82288095Y-110085238D01*
X82335714Y-110180476D01*
X82383333Y-110370952D01*
X82383333Y-110513809D01*
X82335714Y-110704285D01*
X82288095Y-110799523D01*
X82192857Y-110894761D01*
X82050000Y-110942380D01*
X81811904Y-110942380D01*
X82716666Y-109942380D02*
X83383333Y-109942380D01*
X82954761Y-110942380D01*
X93241904Y-105227380D02*
X93241904Y-104227380D01*
X93480000Y-104227380D01*
X93622857Y-104275000D01*
X93718095Y-104370238D01*
X93765714Y-104465476D01*
X93813333Y-104655952D01*
X93813333Y-104798809D01*
X93765714Y-104989285D01*
X93718095Y-105084523D01*
X93622857Y-105179761D01*
X93480000Y-105227380D01*
X93241904Y-105227380D01*
X94670476Y-104227380D02*
X94480000Y-104227380D01*
X94384761Y-104275000D01*
X94337142Y-104322619D01*
X94241904Y-104465476D01*
X94194285Y-104655952D01*
X94194285Y-105036904D01*
X94241904Y-105132142D01*
X94289523Y-105179761D01*
X94384761Y-105227380D01*
X94575238Y-105227380D01*
X94670476Y-105179761D01*
X94718095Y-105132142D01*
X94765714Y-105036904D01*
X94765714Y-104798809D01*
X94718095Y-104703571D01*
X94670476Y-104655952D01*
X94575238Y-104608333D01*
X94384761Y-104608333D01*
X94289523Y-104655952D01*
X94241904Y-104703571D01*
X94194285Y-104798809D01*
X87526904Y-105227380D02*
X87526904Y-104227380D01*
X87765000Y-104227380D01*
X87907857Y-104275000D01*
X88003095Y-104370238D01*
X88050714Y-104465476D01*
X88098333Y-104655952D01*
X88098333Y-104798809D01*
X88050714Y-104989285D01*
X88003095Y-105084523D01*
X87907857Y-105179761D01*
X87765000Y-105227380D01*
X87526904Y-105227380D01*
X89003095Y-104227380D02*
X88526904Y-104227380D01*
X88479285Y-104703571D01*
X88526904Y-104655952D01*
X88622142Y-104608333D01*
X88860238Y-104608333D01*
X88955476Y-104655952D01*
X89003095Y-104703571D01*
X89050714Y-104798809D01*
X89050714Y-105036904D01*
X89003095Y-105132142D01*
X88955476Y-105179761D01*
X88860238Y-105227380D01*
X88622142Y-105227380D01*
X88526904Y-105179761D01*
X88479285Y-105132142D01*
X81811904Y-105227380D02*
X81811904Y-104227380D01*
X82050000Y-104227380D01*
X82192857Y-104275000D01*
X82288095Y-104370238D01*
X82335714Y-104465476D01*
X82383333Y-104655952D01*
X82383333Y-104798809D01*
X82335714Y-104989285D01*
X82288095Y-105084523D01*
X82192857Y-105179761D01*
X82050000Y-105227380D01*
X81811904Y-105227380D01*
X83240476Y-104560714D02*
X83240476Y-105227380D01*
X83002380Y-104179761D02*
X82764285Y-104894047D01*
X83383333Y-104894047D01*
X93241904Y-99512380D02*
X93241904Y-98512380D01*
X93480000Y-98512380D01*
X93622857Y-98560000D01*
X93718095Y-98655238D01*
X93765714Y-98750476D01*
X93813333Y-98940952D01*
X93813333Y-99083809D01*
X93765714Y-99274285D01*
X93718095Y-99369523D01*
X93622857Y-99464761D01*
X93480000Y-99512380D01*
X93241904Y-99512380D01*
X94146666Y-98512380D02*
X94765714Y-98512380D01*
X94432380Y-98893333D01*
X94575238Y-98893333D01*
X94670476Y-98940952D01*
X94718095Y-98988571D01*
X94765714Y-99083809D01*
X94765714Y-99321904D01*
X94718095Y-99417142D01*
X94670476Y-99464761D01*
X94575238Y-99512380D01*
X94289523Y-99512380D01*
X94194285Y-99464761D01*
X94146666Y-99417142D01*
X87526904Y-99512380D02*
X87526904Y-98512380D01*
X87765000Y-98512380D01*
X87907857Y-98560000D01*
X88003095Y-98655238D01*
X88050714Y-98750476D01*
X88098333Y-98940952D01*
X88098333Y-99083809D01*
X88050714Y-99274285D01*
X88003095Y-99369523D01*
X87907857Y-99464761D01*
X87765000Y-99512380D01*
X87526904Y-99512380D01*
X88479285Y-98607619D02*
X88526904Y-98560000D01*
X88622142Y-98512380D01*
X88860238Y-98512380D01*
X88955476Y-98560000D01*
X89003095Y-98607619D01*
X89050714Y-98702857D01*
X89050714Y-98798095D01*
X89003095Y-98940952D01*
X88431666Y-99512380D01*
X89050714Y-99512380D01*
X81811904Y-99512380D02*
X81811904Y-98512380D01*
X82050000Y-98512380D01*
X82192857Y-98560000D01*
X82288095Y-98655238D01*
X82335714Y-98750476D01*
X82383333Y-98940952D01*
X82383333Y-99083809D01*
X82335714Y-99274285D01*
X82288095Y-99369523D01*
X82192857Y-99464761D01*
X82050000Y-99512380D01*
X81811904Y-99512380D01*
X83335714Y-99512380D02*
X82764285Y-99512380D01*
X83050000Y-99512380D02*
X83050000Y-98512380D01*
X82954761Y-98655238D01*
X82859523Y-98750476D01*
X82764285Y-98798095D01*
X106513333Y-96877142D02*
X106465714Y-96924761D01*
X106322857Y-96972380D01*
X106227619Y-96972380D01*
X106084761Y-96924761D01*
X105989523Y-96829523D01*
X105941904Y-96734285D01*
X105894285Y-96543809D01*
X105894285Y-96400952D01*
X105941904Y-96210476D01*
X105989523Y-96115238D01*
X106084761Y-96020000D01*
X106227619Y-95972380D01*
X106322857Y-95972380D01*
X106465714Y-96020000D01*
X106513333Y-96067619D01*
X107418095Y-95972380D02*
X106941904Y-95972380D01*
X106894285Y-96448571D01*
X106941904Y-96400952D01*
X107037142Y-96353333D01*
X107275238Y-96353333D01*
X107370476Y-96400952D01*
X107418095Y-96448571D01*
X107465714Y-96543809D01*
X107465714Y-96781904D01*
X107418095Y-96877142D01*
X107370476Y-96924761D01*
X107275238Y-96972380D01*
X107037142Y-96972380D01*
X106941904Y-96924761D01*
X106894285Y-96877142D01*
X106513333Y-89892142D02*
X106465714Y-89939761D01*
X106322857Y-89987380D01*
X106227619Y-89987380D01*
X106084761Y-89939761D01*
X105989523Y-89844523D01*
X105941904Y-89749285D01*
X105894285Y-89558809D01*
X105894285Y-89415952D01*
X105941904Y-89225476D01*
X105989523Y-89130238D01*
X106084761Y-89035000D01*
X106227619Y-88987380D01*
X106322857Y-88987380D01*
X106465714Y-89035000D01*
X106513333Y-89082619D01*
X107465714Y-89987380D02*
X106894285Y-89987380D01*
X107180000Y-89987380D02*
X107180000Y-88987380D01*
X107084761Y-89130238D01*
X106989523Y-89225476D01*
X106894285Y-89273095D01*
M02*
