G04 #@! TF.GenerationSoftware,KiCad,Pcbnew,(5.1.2)-1*
G04 #@! TF.CreationDate,2019-10-29T22:05:20+01:00*
G04 #@! TF.ProjectId,takt,74616b74-2e6b-4696-9361-645f70636258,rev?*
G04 #@! TF.SameCoordinates,Original*
G04 #@! TF.FileFunction,Legend,Bot*
G04 #@! TF.FilePolarity,Positive*
%FSLAX46Y46*%
G04 Gerber Fmt 4.6, Leading zero omitted, Abs format (unit mm)*
G04 Created by KiCad (PCBNEW (5.1.2)-1) date 2019-10-29 22:05:20*
%MOMM*%
%LPD*%
G04 APERTURE LIST*
%ADD10C,0.120000*%
%ADD11C,0.150000*%
G04 APERTURE END LIST*
D10*
X94486252Y-111835000D02*
X93963748Y-111835000D01*
X94486252Y-110415000D02*
X93963748Y-110415000D01*
X104700000Y-155446252D02*
X104700000Y-154923748D01*
X106120000Y-155446252D02*
X106120000Y-154923748D01*
X88916252Y-111835000D02*
X88393748Y-111835000D01*
X88916252Y-110415000D02*
X88393748Y-110415000D01*
X92635000Y-155446252D02*
X92635000Y-154923748D01*
X94055000Y-155446252D02*
X94055000Y-154923748D01*
X83056252Y-111835000D02*
X82533748Y-111835000D01*
X83056252Y-110415000D02*
X82533748Y-110415000D01*
X80570000Y-155446252D02*
X80570000Y-154923748D01*
X81990000Y-155446252D02*
X81990000Y-154923748D01*
X94631252Y-106120000D02*
X94108748Y-106120000D01*
X94631252Y-104700000D02*
X94108748Y-104700000D01*
X106120000Y-134748748D02*
X106120000Y-135271252D01*
X104700000Y-134748748D02*
X104700000Y-135271252D01*
X88916252Y-106120000D02*
X88393748Y-106120000D01*
X88916252Y-104700000D02*
X88393748Y-104700000D01*
X94055000Y-134748748D02*
X94055000Y-135271252D01*
X92635000Y-134748748D02*
X92635000Y-135271252D01*
X83056252Y-106120000D02*
X82533748Y-106120000D01*
X83056252Y-104700000D02*
X82533748Y-104700000D01*
X81990000Y-134748748D02*
X81990000Y-135271252D01*
X80570000Y-134748748D02*
X80570000Y-135271252D01*
X94486252Y-100405000D02*
X93963748Y-100405000D01*
X94486252Y-98985000D02*
X93963748Y-98985000D01*
X104700000Y-131316252D02*
X104700000Y-130793748D01*
X106120000Y-131316252D02*
X106120000Y-130793748D01*
X88916252Y-100405000D02*
X88393748Y-100405000D01*
X88916252Y-98985000D02*
X88393748Y-98985000D01*
X92635000Y-131316252D02*
X92635000Y-130793748D01*
X94055000Y-131316252D02*
X94055000Y-130793748D01*
X83201252Y-100405000D02*
X82678748Y-100405000D01*
X83201252Y-98985000D02*
X82678748Y-98985000D01*
X80570000Y-131316252D02*
X80570000Y-130793748D01*
X81990000Y-131316252D02*
X81990000Y-130793748D01*
X102160000Y-155446252D02*
X102160000Y-154923748D01*
X103580000Y-155446252D02*
X103580000Y-154923748D01*
X90095000Y-155446252D02*
X90095000Y-154923748D01*
X91515000Y-155446252D02*
X91515000Y-154923748D01*
X78030000Y-155446252D02*
X78030000Y-154923748D01*
X79450000Y-155446252D02*
X79450000Y-154923748D01*
X103580000Y-134748748D02*
X103580000Y-135271252D01*
X102160000Y-134748748D02*
X102160000Y-135271252D01*
X91515000Y-134748748D02*
X91515000Y-135271252D01*
X90095000Y-134748748D02*
X90095000Y-135271252D01*
X79450000Y-134748748D02*
X79450000Y-135271252D01*
X78030000Y-134748748D02*
X78030000Y-135271252D01*
X102160000Y-131316252D02*
X102160000Y-130793748D01*
X103580000Y-131316252D02*
X103580000Y-130793748D01*
X90095000Y-131316252D02*
X90095000Y-130793748D01*
X91515000Y-131316252D02*
X91515000Y-130793748D01*
X78030000Y-131316252D02*
X78030000Y-130793748D01*
X79450000Y-131316252D02*
X79450000Y-130793748D01*
X103380000Y-152075000D02*
X104840000Y-152075000D01*
X103380000Y-148915000D02*
X105540000Y-148915000D01*
X103380000Y-148915000D02*
X103380000Y-149845000D01*
X103380000Y-152075000D02*
X103380000Y-151145000D01*
X91315000Y-152075000D02*
X92775000Y-152075000D01*
X91315000Y-148915000D02*
X93475000Y-148915000D01*
X91315000Y-148915000D02*
X91315000Y-149845000D01*
X91315000Y-152075000D02*
X91315000Y-151145000D01*
X79250000Y-152075000D02*
X80710000Y-152075000D01*
X79250000Y-148915000D02*
X81410000Y-148915000D01*
X79250000Y-148915000D02*
X79250000Y-149845000D01*
X79250000Y-152075000D02*
X79250000Y-151145000D01*
X103380000Y-141280000D02*
X104840000Y-141280000D01*
X103380000Y-138120000D02*
X105540000Y-138120000D01*
X103380000Y-138120000D02*
X103380000Y-139050000D01*
X103380000Y-141280000D02*
X103380000Y-140350000D01*
X91315000Y-141280000D02*
X92775000Y-141280000D01*
X91315000Y-138120000D02*
X93475000Y-138120000D01*
X91315000Y-138120000D02*
X91315000Y-139050000D01*
X91315000Y-141280000D02*
X91315000Y-140350000D01*
X79250000Y-141280000D02*
X80710000Y-141280000D01*
X79250000Y-138120000D02*
X81410000Y-138120000D01*
X79250000Y-138120000D02*
X79250000Y-139050000D01*
X79250000Y-141280000D02*
X79250000Y-140350000D01*
X103380000Y-127945000D02*
X104840000Y-127945000D01*
X103380000Y-124785000D02*
X105540000Y-124785000D01*
X103380000Y-124785000D02*
X103380000Y-125715000D01*
X103380000Y-127945000D02*
X103380000Y-127015000D01*
X91315000Y-127945000D02*
X92775000Y-127945000D01*
X91315000Y-124785000D02*
X93475000Y-124785000D01*
X91315000Y-124785000D02*
X91315000Y-125715000D01*
X91315000Y-127945000D02*
X91315000Y-127015000D01*
X79250000Y-127945000D02*
X80710000Y-127945000D01*
X79250000Y-124785000D02*
X81410000Y-124785000D01*
X79250000Y-124785000D02*
X79250000Y-125715000D01*
X79250000Y-127945000D02*
X79250000Y-127015000D01*
X105470000Y-54550000D02*
X104140000Y-54550000D01*
X105470000Y-55880000D02*
X105470000Y-54550000D01*
X102870000Y-54550000D02*
X100270000Y-54550000D01*
X102870000Y-57150000D02*
X102870000Y-54550000D01*
X105470000Y-57150000D02*
X102870000Y-57150000D01*
X100270000Y-54550000D02*
X100270000Y-74990000D01*
X105470000Y-57150000D02*
X105470000Y-74990000D01*
X105470000Y-74990000D02*
X100270000Y-74990000D01*
X71060000Y-74990000D02*
X72390000Y-74990000D01*
X71060000Y-73660000D02*
X71060000Y-74990000D01*
X73660000Y-74990000D02*
X76260000Y-74990000D01*
X73660000Y-72390000D02*
X73660000Y-74990000D01*
X71060000Y-72390000D02*
X73660000Y-72390000D01*
X76260000Y-74990000D02*
X76260000Y-54550000D01*
X71060000Y-72390000D02*
X71060000Y-54550000D01*
X71060000Y-54550000D02*
X76260000Y-54550000D01*
X103728733Y-99820000D02*
X104071267Y-99820000D01*
X103728733Y-100840000D02*
X104071267Y-100840000D01*
X103728733Y-97915000D02*
X104071267Y-97915000D01*
X103728733Y-98935000D02*
X104071267Y-98935000D01*
X103728733Y-96010000D02*
X104071267Y-96010000D01*
X103728733Y-97030000D02*
X104071267Y-97030000D01*
X103728733Y-92835000D02*
X104071267Y-92835000D01*
X103728733Y-93855000D02*
X104071267Y-93855000D01*
X103728733Y-90930000D02*
X104071267Y-90930000D01*
X103728733Y-91950000D02*
X104071267Y-91950000D01*
X103728733Y-89025000D02*
X104071267Y-89025000D01*
X103728733Y-90045000D02*
X104071267Y-90045000D01*
X97285000Y-97920000D02*
X79245000Y-97920000D01*
X97285000Y-54480000D02*
X97285000Y-97920000D01*
X79245000Y-54480000D02*
X97285000Y-54480000D01*
X81915000Y-57150000D02*
X79245000Y-57150000D01*
X81915000Y-92710000D02*
X81915000Y-57150000D01*
X81915000Y-92710000D02*
X79245000Y-92710000D01*
X94615000Y-57150000D02*
X97285000Y-57150000D01*
X94615000Y-95250000D02*
X94615000Y-57150000D01*
X94615000Y-95250000D02*
X97285000Y-95250000D01*
X79245000Y-97920000D02*
X79245000Y-95250000D01*
X79245000Y-92710000D02*
X79245000Y-54480000D01*
X81915000Y-95250000D02*
X79245000Y-95250000D01*
X81915000Y-92710000D02*
X81915000Y-95250000D01*
D11*
X94867857Y-109927380D02*
X95201190Y-109451190D01*
X95439285Y-109927380D02*
X95439285Y-108927380D01*
X95058333Y-108927380D01*
X94963095Y-108975000D01*
X94915476Y-109022619D01*
X94867857Y-109117857D01*
X94867857Y-109260714D01*
X94915476Y-109355952D01*
X94963095Y-109403571D01*
X95058333Y-109451190D01*
X95439285Y-109451190D01*
X94486904Y-109022619D02*
X94439285Y-108975000D01*
X94344047Y-108927380D01*
X94105952Y-108927380D01*
X94010714Y-108975000D01*
X93963095Y-109022619D01*
X93915476Y-109117857D01*
X93915476Y-109213095D01*
X93963095Y-109355952D01*
X94534523Y-109927380D01*
X93915476Y-109927380D01*
X93582142Y-108927380D02*
X92915476Y-108927380D01*
X93344047Y-109927380D01*
X107512380Y-154542142D02*
X107036190Y-154208809D01*
X107512380Y-153970714D02*
X106512380Y-153970714D01*
X106512380Y-154351666D01*
X106560000Y-154446904D01*
X106607619Y-154494523D01*
X106702857Y-154542142D01*
X106845714Y-154542142D01*
X106940952Y-154494523D01*
X106988571Y-154446904D01*
X107036190Y-154351666D01*
X107036190Y-153970714D01*
X106607619Y-154923095D02*
X106560000Y-154970714D01*
X106512380Y-155065952D01*
X106512380Y-155304047D01*
X106560000Y-155399285D01*
X106607619Y-155446904D01*
X106702857Y-155494523D01*
X106798095Y-155494523D01*
X106940952Y-155446904D01*
X107512380Y-154875476D01*
X107512380Y-155494523D01*
X106512380Y-156351666D02*
X106512380Y-156161190D01*
X106560000Y-156065952D01*
X106607619Y-156018333D01*
X106750476Y-155923095D01*
X106940952Y-155875476D01*
X107321904Y-155875476D01*
X107417142Y-155923095D01*
X107464761Y-155970714D01*
X107512380Y-156065952D01*
X107512380Y-156256428D01*
X107464761Y-156351666D01*
X107417142Y-156399285D01*
X107321904Y-156446904D01*
X107083809Y-156446904D01*
X106988571Y-156399285D01*
X106940952Y-156351666D01*
X106893333Y-156256428D01*
X106893333Y-156065952D01*
X106940952Y-155970714D01*
X106988571Y-155923095D01*
X107083809Y-155875476D01*
X89297857Y-109927380D02*
X89631190Y-109451190D01*
X89869285Y-109927380D02*
X89869285Y-108927380D01*
X89488333Y-108927380D01*
X89393095Y-108975000D01*
X89345476Y-109022619D01*
X89297857Y-109117857D01*
X89297857Y-109260714D01*
X89345476Y-109355952D01*
X89393095Y-109403571D01*
X89488333Y-109451190D01*
X89869285Y-109451190D01*
X88916904Y-109022619D02*
X88869285Y-108975000D01*
X88774047Y-108927380D01*
X88535952Y-108927380D01*
X88440714Y-108975000D01*
X88393095Y-109022619D01*
X88345476Y-109117857D01*
X88345476Y-109213095D01*
X88393095Y-109355952D01*
X88964523Y-109927380D01*
X88345476Y-109927380D01*
X87440714Y-108927380D02*
X87916904Y-108927380D01*
X87964523Y-109403571D01*
X87916904Y-109355952D01*
X87821666Y-109308333D01*
X87583571Y-109308333D01*
X87488333Y-109355952D01*
X87440714Y-109403571D01*
X87393095Y-109498809D01*
X87393095Y-109736904D01*
X87440714Y-109832142D01*
X87488333Y-109879761D01*
X87583571Y-109927380D01*
X87821666Y-109927380D01*
X87916904Y-109879761D01*
X87964523Y-109832142D01*
X96527857Y-154757380D02*
X96861190Y-154281190D01*
X97099285Y-154757380D02*
X97099285Y-153757380D01*
X96718333Y-153757380D01*
X96623095Y-153805000D01*
X96575476Y-153852619D01*
X96527857Y-153947857D01*
X96527857Y-154090714D01*
X96575476Y-154185952D01*
X96623095Y-154233571D01*
X96718333Y-154281190D01*
X97099285Y-154281190D01*
X96146904Y-153852619D02*
X96099285Y-153805000D01*
X96004047Y-153757380D01*
X95765952Y-153757380D01*
X95670714Y-153805000D01*
X95623095Y-153852619D01*
X95575476Y-153947857D01*
X95575476Y-154043095D01*
X95623095Y-154185952D01*
X96194523Y-154757380D01*
X95575476Y-154757380D01*
X94718333Y-154090714D02*
X94718333Y-154757380D01*
X94956428Y-153709761D02*
X95194523Y-154424047D01*
X94575476Y-154424047D01*
X83437857Y-109927380D02*
X83771190Y-109451190D01*
X84009285Y-109927380D02*
X84009285Y-108927380D01*
X83628333Y-108927380D01*
X83533095Y-108975000D01*
X83485476Y-109022619D01*
X83437857Y-109117857D01*
X83437857Y-109260714D01*
X83485476Y-109355952D01*
X83533095Y-109403571D01*
X83628333Y-109451190D01*
X84009285Y-109451190D01*
X83056904Y-109022619D02*
X83009285Y-108975000D01*
X82914047Y-108927380D01*
X82675952Y-108927380D01*
X82580714Y-108975000D01*
X82533095Y-109022619D01*
X82485476Y-109117857D01*
X82485476Y-109213095D01*
X82533095Y-109355952D01*
X83104523Y-109927380D01*
X82485476Y-109927380D01*
X82152142Y-108927380D02*
X81533095Y-108927380D01*
X81866428Y-109308333D01*
X81723571Y-109308333D01*
X81628333Y-109355952D01*
X81580714Y-109403571D01*
X81533095Y-109498809D01*
X81533095Y-109736904D01*
X81580714Y-109832142D01*
X81628333Y-109879761D01*
X81723571Y-109927380D01*
X82009285Y-109927380D01*
X82104523Y-109879761D01*
X82152142Y-109832142D01*
X84462857Y-154757380D02*
X84796190Y-154281190D01*
X85034285Y-154757380D02*
X85034285Y-153757380D01*
X84653333Y-153757380D01*
X84558095Y-153805000D01*
X84510476Y-153852619D01*
X84462857Y-153947857D01*
X84462857Y-154090714D01*
X84510476Y-154185952D01*
X84558095Y-154233571D01*
X84653333Y-154281190D01*
X85034285Y-154281190D01*
X84081904Y-153852619D02*
X84034285Y-153805000D01*
X83939047Y-153757380D01*
X83700952Y-153757380D01*
X83605714Y-153805000D01*
X83558095Y-153852619D01*
X83510476Y-153947857D01*
X83510476Y-154043095D01*
X83558095Y-154185952D01*
X84129523Y-154757380D01*
X83510476Y-154757380D01*
X83129523Y-153852619D02*
X83081904Y-153805000D01*
X82986666Y-153757380D01*
X82748571Y-153757380D01*
X82653333Y-153805000D01*
X82605714Y-153852619D01*
X82558095Y-153947857D01*
X82558095Y-154043095D01*
X82605714Y-154185952D01*
X83177142Y-154757380D01*
X82558095Y-154757380D01*
X95012857Y-104212380D02*
X95346190Y-103736190D01*
X95584285Y-104212380D02*
X95584285Y-103212380D01*
X95203333Y-103212380D01*
X95108095Y-103260000D01*
X95060476Y-103307619D01*
X95012857Y-103402857D01*
X95012857Y-103545714D01*
X95060476Y-103640952D01*
X95108095Y-103688571D01*
X95203333Y-103736190D01*
X95584285Y-103736190D01*
X94631904Y-103307619D02*
X94584285Y-103260000D01*
X94489047Y-103212380D01*
X94250952Y-103212380D01*
X94155714Y-103260000D01*
X94108095Y-103307619D01*
X94060476Y-103402857D01*
X94060476Y-103498095D01*
X94108095Y-103640952D01*
X94679523Y-104212380D01*
X94060476Y-104212380D01*
X93108095Y-104212380D02*
X93679523Y-104212380D01*
X93393809Y-104212380D02*
X93393809Y-103212380D01*
X93489047Y-103355238D01*
X93584285Y-103450476D01*
X93679523Y-103498095D01*
X107767380Y-133977142D02*
X107291190Y-133643809D01*
X107767380Y-133405714D02*
X106767380Y-133405714D01*
X106767380Y-133786666D01*
X106815000Y-133881904D01*
X106862619Y-133929523D01*
X106957857Y-133977142D01*
X107100714Y-133977142D01*
X107195952Y-133929523D01*
X107243571Y-133881904D01*
X107291190Y-133786666D01*
X107291190Y-133405714D01*
X106862619Y-134358095D02*
X106815000Y-134405714D01*
X106767380Y-134500952D01*
X106767380Y-134739047D01*
X106815000Y-134834285D01*
X106862619Y-134881904D01*
X106957857Y-134929523D01*
X107053095Y-134929523D01*
X107195952Y-134881904D01*
X107767380Y-134310476D01*
X107767380Y-134929523D01*
X106767380Y-135548571D02*
X106767380Y-135643809D01*
X106815000Y-135739047D01*
X106862619Y-135786666D01*
X106957857Y-135834285D01*
X107148333Y-135881904D01*
X107386428Y-135881904D01*
X107576904Y-135834285D01*
X107672142Y-135786666D01*
X107719761Y-135739047D01*
X107767380Y-135643809D01*
X107767380Y-135548571D01*
X107719761Y-135453333D01*
X107672142Y-135405714D01*
X107576904Y-135358095D01*
X107386428Y-135310476D01*
X107148333Y-135310476D01*
X106957857Y-135358095D01*
X106862619Y-135405714D01*
X106815000Y-135453333D01*
X106767380Y-135548571D01*
X89297857Y-104212380D02*
X89631190Y-103736190D01*
X89869285Y-104212380D02*
X89869285Y-103212380D01*
X89488333Y-103212380D01*
X89393095Y-103260000D01*
X89345476Y-103307619D01*
X89297857Y-103402857D01*
X89297857Y-103545714D01*
X89345476Y-103640952D01*
X89393095Y-103688571D01*
X89488333Y-103736190D01*
X89869285Y-103736190D01*
X88345476Y-104212380D02*
X88916904Y-104212380D01*
X88631190Y-104212380D02*
X88631190Y-103212380D01*
X88726428Y-103355238D01*
X88821666Y-103450476D01*
X88916904Y-103498095D01*
X87869285Y-104212380D02*
X87678809Y-104212380D01*
X87583571Y-104164761D01*
X87535952Y-104117142D01*
X87440714Y-103974285D01*
X87393095Y-103783809D01*
X87393095Y-103402857D01*
X87440714Y-103307619D01*
X87488333Y-103260000D01*
X87583571Y-103212380D01*
X87774047Y-103212380D01*
X87869285Y-103260000D01*
X87916904Y-103307619D01*
X87964523Y-103402857D01*
X87964523Y-103640952D01*
X87916904Y-103736190D01*
X87869285Y-103783809D01*
X87774047Y-103831428D01*
X87583571Y-103831428D01*
X87488333Y-103783809D01*
X87440714Y-103736190D01*
X87393095Y-103640952D01*
X96527857Y-136342380D02*
X96861190Y-135866190D01*
X97099285Y-136342380D02*
X97099285Y-135342380D01*
X96718333Y-135342380D01*
X96623095Y-135390000D01*
X96575476Y-135437619D01*
X96527857Y-135532857D01*
X96527857Y-135675714D01*
X96575476Y-135770952D01*
X96623095Y-135818571D01*
X96718333Y-135866190D01*
X97099285Y-135866190D01*
X95575476Y-136342380D02*
X96146904Y-136342380D01*
X95861190Y-136342380D02*
X95861190Y-135342380D01*
X95956428Y-135485238D01*
X96051666Y-135580476D01*
X96146904Y-135628095D01*
X95004047Y-135770952D02*
X95099285Y-135723333D01*
X95146904Y-135675714D01*
X95194523Y-135580476D01*
X95194523Y-135532857D01*
X95146904Y-135437619D01*
X95099285Y-135390000D01*
X95004047Y-135342380D01*
X94813571Y-135342380D01*
X94718333Y-135390000D01*
X94670714Y-135437619D01*
X94623095Y-135532857D01*
X94623095Y-135580476D01*
X94670714Y-135675714D01*
X94718333Y-135723333D01*
X94813571Y-135770952D01*
X95004047Y-135770952D01*
X95099285Y-135818571D01*
X95146904Y-135866190D01*
X95194523Y-135961428D01*
X95194523Y-136151904D01*
X95146904Y-136247142D01*
X95099285Y-136294761D01*
X95004047Y-136342380D01*
X94813571Y-136342380D01*
X94718333Y-136294761D01*
X94670714Y-136247142D01*
X94623095Y-136151904D01*
X94623095Y-135961428D01*
X94670714Y-135866190D01*
X94718333Y-135818571D01*
X94813571Y-135770952D01*
X83437857Y-104212380D02*
X83771190Y-103736190D01*
X84009285Y-104212380D02*
X84009285Y-103212380D01*
X83628333Y-103212380D01*
X83533095Y-103260000D01*
X83485476Y-103307619D01*
X83437857Y-103402857D01*
X83437857Y-103545714D01*
X83485476Y-103640952D01*
X83533095Y-103688571D01*
X83628333Y-103736190D01*
X84009285Y-103736190D01*
X82485476Y-104212380D02*
X83056904Y-104212380D01*
X82771190Y-104212380D02*
X82771190Y-103212380D01*
X82866428Y-103355238D01*
X82961666Y-103450476D01*
X83056904Y-103498095D01*
X82152142Y-103212380D02*
X81485476Y-103212380D01*
X81914047Y-104212380D01*
X84462857Y-136342380D02*
X84796190Y-135866190D01*
X85034285Y-136342380D02*
X85034285Y-135342380D01*
X84653333Y-135342380D01*
X84558095Y-135390000D01*
X84510476Y-135437619D01*
X84462857Y-135532857D01*
X84462857Y-135675714D01*
X84510476Y-135770952D01*
X84558095Y-135818571D01*
X84653333Y-135866190D01*
X85034285Y-135866190D01*
X83510476Y-136342380D02*
X84081904Y-136342380D01*
X83796190Y-136342380D02*
X83796190Y-135342380D01*
X83891428Y-135485238D01*
X83986666Y-135580476D01*
X84081904Y-135628095D01*
X82653333Y-135342380D02*
X82843809Y-135342380D01*
X82939047Y-135390000D01*
X82986666Y-135437619D01*
X83081904Y-135580476D01*
X83129523Y-135770952D01*
X83129523Y-136151904D01*
X83081904Y-136247142D01*
X83034285Y-136294761D01*
X82939047Y-136342380D01*
X82748571Y-136342380D01*
X82653333Y-136294761D01*
X82605714Y-136247142D01*
X82558095Y-136151904D01*
X82558095Y-135913809D01*
X82605714Y-135818571D01*
X82653333Y-135770952D01*
X82748571Y-135723333D01*
X82939047Y-135723333D01*
X83034285Y-135770952D01*
X83081904Y-135818571D01*
X83129523Y-135913809D01*
X94867857Y-98497380D02*
X95201190Y-98021190D01*
X95439285Y-98497380D02*
X95439285Y-97497380D01*
X95058333Y-97497380D01*
X94963095Y-97545000D01*
X94915476Y-97592619D01*
X94867857Y-97687857D01*
X94867857Y-97830714D01*
X94915476Y-97925952D01*
X94963095Y-97973571D01*
X95058333Y-98021190D01*
X95439285Y-98021190D01*
X93915476Y-98497380D02*
X94486904Y-98497380D01*
X94201190Y-98497380D02*
X94201190Y-97497380D01*
X94296428Y-97640238D01*
X94391666Y-97735476D01*
X94486904Y-97783095D01*
X93010714Y-97497380D02*
X93486904Y-97497380D01*
X93534523Y-97973571D01*
X93486904Y-97925952D01*
X93391666Y-97878333D01*
X93153571Y-97878333D01*
X93058333Y-97925952D01*
X93010714Y-97973571D01*
X92963095Y-98068809D01*
X92963095Y-98306904D01*
X93010714Y-98402142D01*
X93058333Y-98449761D01*
X93153571Y-98497380D01*
X93391666Y-98497380D01*
X93486904Y-98449761D01*
X93534523Y-98402142D01*
X107512380Y-130412142D02*
X107036190Y-130078809D01*
X107512380Y-129840714D02*
X106512380Y-129840714D01*
X106512380Y-130221666D01*
X106560000Y-130316904D01*
X106607619Y-130364523D01*
X106702857Y-130412142D01*
X106845714Y-130412142D01*
X106940952Y-130364523D01*
X106988571Y-130316904D01*
X107036190Y-130221666D01*
X107036190Y-129840714D01*
X107512380Y-131364523D02*
X107512380Y-130793095D01*
X107512380Y-131078809D02*
X106512380Y-131078809D01*
X106655238Y-130983571D01*
X106750476Y-130888333D01*
X106798095Y-130793095D01*
X106845714Y-132221666D02*
X107512380Y-132221666D01*
X106464761Y-131983571D02*
X107179047Y-131745476D01*
X107179047Y-132364523D01*
X89297857Y-98497380D02*
X89631190Y-98021190D01*
X89869285Y-98497380D02*
X89869285Y-97497380D01*
X89488333Y-97497380D01*
X89393095Y-97545000D01*
X89345476Y-97592619D01*
X89297857Y-97687857D01*
X89297857Y-97830714D01*
X89345476Y-97925952D01*
X89393095Y-97973571D01*
X89488333Y-98021190D01*
X89869285Y-98021190D01*
X88345476Y-98497380D02*
X88916904Y-98497380D01*
X88631190Y-98497380D02*
X88631190Y-97497380D01*
X88726428Y-97640238D01*
X88821666Y-97735476D01*
X88916904Y-97783095D01*
X88012142Y-97497380D02*
X87393095Y-97497380D01*
X87726428Y-97878333D01*
X87583571Y-97878333D01*
X87488333Y-97925952D01*
X87440714Y-97973571D01*
X87393095Y-98068809D01*
X87393095Y-98306904D01*
X87440714Y-98402142D01*
X87488333Y-98449761D01*
X87583571Y-98497380D01*
X87869285Y-98497380D01*
X87964523Y-98449761D01*
X88012142Y-98402142D01*
X96527857Y-130627380D02*
X96861190Y-130151190D01*
X97099285Y-130627380D02*
X97099285Y-129627380D01*
X96718333Y-129627380D01*
X96623095Y-129675000D01*
X96575476Y-129722619D01*
X96527857Y-129817857D01*
X96527857Y-129960714D01*
X96575476Y-130055952D01*
X96623095Y-130103571D01*
X96718333Y-130151190D01*
X97099285Y-130151190D01*
X95575476Y-130627380D02*
X96146904Y-130627380D01*
X95861190Y-130627380D02*
X95861190Y-129627380D01*
X95956428Y-129770238D01*
X96051666Y-129865476D01*
X96146904Y-129913095D01*
X95194523Y-129722619D02*
X95146904Y-129675000D01*
X95051666Y-129627380D01*
X94813571Y-129627380D01*
X94718333Y-129675000D01*
X94670714Y-129722619D01*
X94623095Y-129817857D01*
X94623095Y-129913095D01*
X94670714Y-130055952D01*
X95242142Y-130627380D01*
X94623095Y-130627380D01*
X83582857Y-98497380D02*
X83916190Y-98021190D01*
X84154285Y-98497380D02*
X84154285Y-97497380D01*
X83773333Y-97497380D01*
X83678095Y-97545000D01*
X83630476Y-97592619D01*
X83582857Y-97687857D01*
X83582857Y-97830714D01*
X83630476Y-97925952D01*
X83678095Y-97973571D01*
X83773333Y-98021190D01*
X84154285Y-98021190D01*
X82630476Y-98497380D02*
X83201904Y-98497380D01*
X82916190Y-98497380D02*
X82916190Y-97497380D01*
X83011428Y-97640238D01*
X83106666Y-97735476D01*
X83201904Y-97783095D01*
X81678095Y-98497380D02*
X82249523Y-98497380D01*
X81963809Y-98497380D02*
X81963809Y-97497380D01*
X82059047Y-97640238D01*
X82154285Y-97735476D01*
X82249523Y-97783095D01*
X84462857Y-130627380D02*
X84796190Y-130151190D01*
X85034285Y-130627380D02*
X85034285Y-129627380D01*
X84653333Y-129627380D01*
X84558095Y-129675000D01*
X84510476Y-129722619D01*
X84462857Y-129817857D01*
X84462857Y-129960714D01*
X84510476Y-130055952D01*
X84558095Y-130103571D01*
X84653333Y-130151190D01*
X85034285Y-130151190D01*
X83510476Y-130627380D02*
X84081904Y-130627380D01*
X83796190Y-130627380D02*
X83796190Y-129627380D01*
X83891428Y-129770238D01*
X83986666Y-129865476D01*
X84081904Y-129913095D01*
X82891428Y-129627380D02*
X82796190Y-129627380D01*
X82700952Y-129675000D01*
X82653333Y-129722619D01*
X82605714Y-129817857D01*
X82558095Y-130008333D01*
X82558095Y-130246428D01*
X82605714Y-130436904D01*
X82653333Y-130532142D01*
X82700952Y-130579761D01*
X82796190Y-130627380D01*
X82891428Y-130627380D01*
X82986666Y-130579761D01*
X83034285Y-130532142D01*
X83081904Y-130436904D01*
X83129523Y-130246428D01*
X83129523Y-130008333D01*
X83081904Y-129817857D01*
X83034285Y-129722619D01*
X82986666Y-129675000D01*
X82891428Y-129627380D01*
X101131666Y-154757380D02*
X101465000Y-154281190D01*
X101703095Y-154757380D02*
X101703095Y-153757380D01*
X101322142Y-153757380D01*
X101226904Y-153805000D01*
X101179285Y-153852619D01*
X101131666Y-153947857D01*
X101131666Y-154090714D01*
X101179285Y-154185952D01*
X101226904Y-154233571D01*
X101322142Y-154281190D01*
X101703095Y-154281190D01*
X100655476Y-154757380D02*
X100465000Y-154757380D01*
X100369761Y-154709761D01*
X100322142Y-154662142D01*
X100226904Y-154519285D01*
X100179285Y-154328809D01*
X100179285Y-153947857D01*
X100226904Y-153852619D01*
X100274523Y-153805000D01*
X100369761Y-153757380D01*
X100560238Y-153757380D01*
X100655476Y-153805000D01*
X100703095Y-153852619D01*
X100750714Y-153947857D01*
X100750714Y-154185952D01*
X100703095Y-154281190D01*
X100655476Y-154328809D01*
X100560238Y-154376428D01*
X100369761Y-154376428D01*
X100274523Y-154328809D01*
X100226904Y-154281190D01*
X100179285Y-154185952D01*
X89066666Y-154757380D02*
X89400000Y-154281190D01*
X89638095Y-154757380D02*
X89638095Y-153757380D01*
X89257142Y-153757380D01*
X89161904Y-153805000D01*
X89114285Y-153852619D01*
X89066666Y-153947857D01*
X89066666Y-154090714D01*
X89114285Y-154185952D01*
X89161904Y-154233571D01*
X89257142Y-154281190D01*
X89638095Y-154281190D01*
X88495238Y-154185952D02*
X88590476Y-154138333D01*
X88638095Y-154090714D01*
X88685714Y-153995476D01*
X88685714Y-153947857D01*
X88638095Y-153852619D01*
X88590476Y-153805000D01*
X88495238Y-153757380D01*
X88304761Y-153757380D01*
X88209523Y-153805000D01*
X88161904Y-153852619D01*
X88114285Y-153947857D01*
X88114285Y-153995476D01*
X88161904Y-154090714D01*
X88209523Y-154138333D01*
X88304761Y-154185952D01*
X88495238Y-154185952D01*
X88590476Y-154233571D01*
X88638095Y-154281190D01*
X88685714Y-154376428D01*
X88685714Y-154566904D01*
X88638095Y-154662142D01*
X88590476Y-154709761D01*
X88495238Y-154757380D01*
X88304761Y-154757380D01*
X88209523Y-154709761D01*
X88161904Y-154662142D01*
X88114285Y-154566904D01*
X88114285Y-154376428D01*
X88161904Y-154281190D01*
X88209523Y-154233571D01*
X88304761Y-154185952D01*
X77001666Y-154757380D02*
X77335000Y-154281190D01*
X77573095Y-154757380D02*
X77573095Y-153757380D01*
X77192142Y-153757380D01*
X77096904Y-153805000D01*
X77049285Y-153852619D01*
X77001666Y-153947857D01*
X77001666Y-154090714D01*
X77049285Y-154185952D01*
X77096904Y-154233571D01*
X77192142Y-154281190D01*
X77573095Y-154281190D01*
X76668333Y-153757380D02*
X76001666Y-153757380D01*
X76430238Y-154757380D01*
X101131666Y-136342380D02*
X101465000Y-135866190D01*
X101703095Y-136342380D02*
X101703095Y-135342380D01*
X101322142Y-135342380D01*
X101226904Y-135390000D01*
X101179285Y-135437619D01*
X101131666Y-135532857D01*
X101131666Y-135675714D01*
X101179285Y-135770952D01*
X101226904Y-135818571D01*
X101322142Y-135866190D01*
X101703095Y-135866190D01*
X100274523Y-135342380D02*
X100465000Y-135342380D01*
X100560238Y-135390000D01*
X100607857Y-135437619D01*
X100703095Y-135580476D01*
X100750714Y-135770952D01*
X100750714Y-136151904D01*
X100703095Y-136247142D01*
X100655476Y-136294761D01*
X100560238Y-136342380D01*
X100369761Y-136342380D01*
X100274523Y-136294761D01*
X100226904Y-136247142D01*
X100179285Y-136151904D01*
X100179285Y-135913809D01*
X100226904Y-135818571D01*
X100274523Y-135770952D01*
X100369761Y-135723333D01*
X100560238Y-135723333D01*
X100655476Y-135770952D01*
X100703095Y-135818571D01*
X100750714Y-135913809D01*
X89066666Y-136342380D02*
X89400000Y-135866190D01*
X89638095Y-136342380D02*
X89638095Y-135342380D01*
X89257142Y-135342380D01*
X89161904Y-135390000D01*
X89114285Y-135437619D01*
X89066666Y-135532857D01*
X89066666Y-135675714D01*
X89114285Y-135770952D01*
X89161904Y-135818571D01*
X89257142Y-135866190D01*
X89638095Y-135866190D01*
X88161904Y-135342380D02*
X88638095Y-135342380D01*
X88685714Y-135818571D01*
X88638095Y-135770952D01*
X88542857Y-135723333D01*
X88304761Y-135723333D01*
X88209523Y-135770952D01*
X88161904Y-135818571D01*
X88114285Y-135913809D01*
X88114285Y-136151904D01*
X88161904Y-136247142D01*
X88209523Y-136294761D01*
X88304761Y-136342380D01*
X88542857Y-136342380D01*
X88638095Y-136294761D01*
X88685714Y-136247142D01*
X77001666Y-136342380D02*
X77335000Y-135866190D01*
X77573095Y-136342380D02*
X77573095Y-135342380D01*
X77192142Y-135342380D01*
X77096904Y-135390000D01*
X77049285Y-135437619D01*
X77001666Y-135532857D01*
X77001666Y-135675714D01*
X77049285Y-135770952D01*
X77096904Y-135818571D01*
X77192142Y-135866190D01*
X77573095Y-135866190D01*
X76144523Y-135675714D02*
X76144523Y-136342380D01*
X76382619Y-135294761D02*
X76620714Y-136009047D01*
X76001666Y-136009047D01*
X101131666Y-130627380D02*
X101465000Y-130151190D01*
X101703095Y-130627380D02*
X101703095Y-129627380D01*
X101322142Y-129627380D01*
X101226904Y-129675000D01*
X101179285Y-129722619D01*
X101131666Y-129817857D01*
X101131666Y-129960714D01*
X101179285Y-130055952D01*
X101226904Y-130103571D01*
X101322142Y-130151190D01*
X101703095Y-130151190D01*
X100798333Y-129627380D02*
X100179285Y-129627380D01*
X100512619Y-130008333D01*
X100369761Y-130008333D01*
X100274523Y-130055952D01*
X100226904Y-130103571D01*
X100179285Y-130198809D01*
X100179285Y-130436904D01*
X100226904Y-130532142D01*
X100274523Y-130579761D01*
X100369761Y-130627380D01*
X100655476Y-130627380D01*
X100750714Y-130579761D01*
X100798333Y-130532142D01*
X89066666Y-130627380D02*
X89400000Y-130151190D01*
X89638095Y-130627380D02*
X89638095Y-129627380D01*
X89257142Y-129627380D01*
X89161904Y-129675000D01*
X89114285Y-129722619D01*
X89066666Y-129817857D01*
X89066666Y-129960714D01*
X89114285Y-130055952D01*
X89161904Y-130103571D01*
X89257142Y-130151190D01*
X89638095Y-130151190D01*
X88685714Y-129722619D02*
X88638095Y-129675000D01*
X88542857Y-129627380D01*
X88304761Y-129627380D01*
X88209523Y-129675000D01*
X88161904Y-129722619D01*
X88114285Y-129817857D01*
X88114285Y-129913095D01*
X88161904Y-130055952D01*
X88733333Y-130627380D01*
X88114285Y-130627380D01*
X77001666Y-130627380D02*
X77335000Y-130151190D01*
X77573095Y-130627380D02*
X77573095Y-129627380D01*
X77192142Y-129627380D01*
X77096904Y-129675000D01*
X77049285Y-129722619D01*
X77001666Y-129817857D01*
X77001666Y-129960714D01*
X77049285Y-130055952D01*
X77096904Y-130103571D01*
X77192142Y-130151190D01*
X77573095Y-130151190D01*
X76049285Y-130627380D02*
X76620714Y-130627380D01*
X76335000Y-130627380D02*
X76335000Y-129627380D01*
X76430238Y-129770238D01*
X76525476Y-129865476D01*
X76620714Y-129913095D01*
X106775238Y-151042619D02*
X106870476Y-150995000D01*
X106965714Y-150899761D01*
X107108571Y-150756904D01*
X107203809Y-150709285D01*
X107299047Y-150709285D01*
X107251428Y-150947380D02*
X107346666Y-150899761D01*
X107441904Y-150804523D01*
X107489523Y-150614047D01*
X107489523Y-150280714D01*
X107441904Y-150090238D01*
X107346666Y-149995000D01*
X107251428Y-149947380D01*
X107060952Y-149947380D01*
X106965714Y-149995000D01*
X106870476Y-150090238D01*
X106822857Y-150280714D01*
X106822857Y-150614047D01*
X106870476Y-150804523D01*
X106965714Y-150899761D01*
X107060952Y-150947380D01*
X107251428Y-150947380D01*
X106346666Y-150947380D02*
X106156190Y-150947380D01*
X106060952Y-150899761D01*
X106013333Y-150852142D01*
X105918095Y-150709285D01*
X105870476Y-150518809D01*
X105870476Y-150137857D01*
X105918095Y-150042619D01*
X105965714Y-149995000D01*
X106060952Y-149947380D01*
X106251428Y-149947380D01*
X106346666Y-149995000D01*
X106394285Y-150042619D01*
X106441904Y-150137857D01*
X106441904Y-150375952D01*
X106394285Y-150471190D01*
X106346666Y-150518809D01*
X106251428Y-150566428D01*
X106060952Y-150566428D01*
X105965714Y-150518809D01*
X105918095Y-150471190D01*
X105870476Y-150375952D01*
X95345238Y-151042619D02*
X95440476Y-150995000D01*
X95535714Y-150899761D01*
X95678571Y-150756904D01*
X95773809Y-150709285D01*
X95869047Y-150709285D01*
X95821428Y-150947380D02*
X95916666Y-150899761D01*
X96011904Y-150804523D01*
X96059523Y-150614047D01*
X96059523Y-150280714D01*
X96011904Y-150090238D01*
X95916666Y-149995000D01*
X95821428Y-149947380D01*
X95630952Y-149947380D01*
X95535714Y-149995000D01*
X95440476Y-150090238D01*
X95392857Y-150280714D01*
X95392857Y-150614047D01*
X95440476Y-150804523D01*
X95535714Y-150899761D01*
X95630952Y-150947380D01*
X95821428Y-150947380D01*
X94821428Y-150375952D02*
X94916666Y-150328333D01*
X94964285Y-150280714D01*
X95011904Y-150185476D01*
X95011904Y-150137857D01*
X94964285Y-150042619D01*
X94916666Y-149995000D01*
X94821428Y-149947380D01*
X94630952Y-149947380D01*
X94535714Y-149995000D01*
X94488095Y-150042619D01*
X94440476Y-150137857D01*
X94440476Y-150185476D01*
X94488095Y-150280714D01*
X94535714Y-150328333D01*
X94630952Y-150375952D01*
X94821428Y-150375952D01*
X94916666Y-150423571D01*
X94964285Y-150471190D01*
X95011904Y-150566428D01*
X95011904Y-150756904D01*
X94964285Y-150852142D01*
X94916666Y-150899761D01*
X94821428Y-150947380D01*
X94630952Y-150947380D01*
X94535714Y-150899761D01*
X94488095Y-150852142D01*
X94440476Y-150756904D01*
X94440476Y-150566428D01*
X94488095Y-150471190D01*
X94535714Y-150423571D01*
X94630952Y-150375952D01*
X83280238Y-151042619D02*
X83375476Y-150995000D01*
X83470714Y-150899761D01*
X83613571Y-150756904D01*
X83708809Y-150709285D01*
X83804047Y-150709285D01*
X83756428Y-150947380D02*
X83851666Y-150899761D01*
X83946904Y-150804523D01*
X83994523Y-150614047D01*
X83994523Y-150280714D01*
X83946904Y-150090238D01*
X83851666Y-149995000D01*
X83756428Y-149947380D01*
X83565952Y-149947380D01*
X83470714Y-149995000D01*
X83375476Y-150090238D01*
X83327857Y-150280714D01*
X83327857Y-150614047D01*
X83375476Y-150804523D01*
X83470714Y-150899761D01*
X83565952Y-150947380D01*
X83756428Y-150947380D01*
X82994523Y-149947380D02*
X82327857Y-149947380D01*
X82756428Y-150947380D01*
X106775238Y-140247619D02*
X106870476Y-140200000D01*
X106965714Y-140104761D01*
X107108571Y-139961904D01*
X107203809Y-139914285D01*
X107299047Y-139914285D01*
X107251428Y-140152380D02*
X107346666Y-140104761D01*
X107441904Y-140009523D01*
X107489523Y-139819047D01*
X107489523Y-139485714D01*
X107441904Y-139295238D01*
X107346666Y-139200000D01*
X107251428Y-139152380D01*
X107060952Y-139152380D01*
X106965714Y-139200000D01*
X106870476Y-139295238D01*
X106822857Y-139485714D01*
X106822857Y-139819047D01*
X106870476Y-140009523D01*
X106965714Y-140104761D01*
X107060952Y-140152380D01*
X107251428Y-140152380D01*
X105965714Y-139152380D02*
X106156190Y-139152380D01*
X106251428Y-139200000D01*
X106299047Y-139247619D01*
X106394285Y-139390476D01*
X106441904Y-139580952D01*
X106441904Y-139961904D01*
X106394285Y-140057142D01*
X106346666Y-140104761D01*
X106251428Y-140152380D01*
X106060952Y-140152380D01*
X105965714Y-140104761D01*
X105918095Y-140057142D01*
X105870476Y-139961904D01*
X105870476Y-139723809D01*
X105918095Y-139628571D01*
X105965714Y-139580952D01*
X106060952Y-139533333D01*
X106251428Y-139533333D01*
X106346666Y-139580952D01*
X106394285Y-139628571D01*
X106441904Y-139723809D01*
X95345238Y-140247619D02*
X95440476Y-140200000D01*
X95535714Y-140104761D01*
X95678571Y-139961904D01*
X95773809Y-139914285D01*
X95869047Y-139914285D01*
X95821428Y-140152380D02*
X95916666Y-140104761D01*
X96011904Y-140009523D01*
X96059523Y-139819047D01*
X96059523Y-139485714D01*
X96011904Y-139295238D01*
X95916666Y-139200000D01*
X95821428Y-139152380D01*
X95630952Y-139152380D01*
X95535714Y-139200000D01*
X95440476Y-139295238D01*
X95392857Y-139485714D01*
X95392857Y-139819047D01*
X95440476Y-140009523D01*
X95535714Y-140104761D01*
X95630952Y-140152380D01*
X95821428Y-140152380D01*
X94488095Y-139152380D02*
X94964285Y-139152380D01*
X95011904Y-139628571D01*
X94964285Y-139580952D01*
X94869047Y-139533333D01*
X94630952Y-139533333D01*
X94535714Y-139580952D01*
X94488095Y-139628571D01*
X94440476Y-139723809D01*
X94440476Y-139961904D01*
X94488095Y-140057142D01*
X94535714Y-140104761D01*
X94630952Y-140152380D01*
X94869047Y-140152380D01*
X94964285Y-140104761D01*
X95011904Y-140057142D01*
X83280238Y-140247619D02*
X83375476Y-140200000D01*
X83470714Y-140104761D01*
X83613571Y-139961904D01*
X83708809Y-139914285D01*
X83804047Y-139914285D01*
X83756428Y-140152380D02*
X83851666Y-140104761D01*
X83946904Y-140009523D01*
X83994523Y-139819047D01*
X83994523Y-139485714D01*
X83946904Y-139295238D01*
X83851666Y-139200000D01*
X83756428Y-139152380D01*
X83565952Y-139152380D01*
X83470714Y-139200000D01*
X83375476Y-139295238D01*
X83327857Y-139485714D01*
X83327857Y-139819047D01*
X83375476Y-140009523D01*
X83470714Y-140104761D01*
X83565952Y-140152380D01*
X83756428Y-140152380D01*
X82470714Y-139485714D02*
X82470714Y-140152380D01*
X82708809Y-139104761D02*
X82946904Y-139819047D01*
X82327857Y-139819047D01*
X106775238Y-126912619D02*
X106870476Y-126865000D01*
X106965714Y-126769761D01*
X107108571Y-126626904D01*
X107203809Y-126579285D01*
X107299047Y-126579285D01*
X107251428Y-126817380D02*
X107346666Y-126769761D01*
X107441904Y-126674523D01*
X107489523Y-126484047D01*
X107489523Y-126150714D01*
X107441904Y-125960238D01*
X107346666Y-125865000D01*
X107251428Y-125817380D01*
X107060952Y-125817380D01*
X106965714Y-125865000D01*
X106870476Y-125960238D01*
X106822857Y-126150714D01*
X106822857Y-126484047D01*
X106870476Y-126674523D01*
X106965714Y-126769761D01*
X107060952Y-126817380D01*
X107251428Y-126817380D01*
X106489523Y-125817380D02*
X105870476Y-125817380D01*
X106203809Y-126198333D01*
X106060952Y-126198333D01*
X105965714Y-126245952D01*
X105918095Y-126293571D01*
X105870476Y-126388809D01*
X105870476Y-126626904D01*
X105918095Y-126722142D01*
X105965714Y-126769761D01*
X106060952Y-126817380D01*
X106346666Y-126817380D01*
X106441904Y-126769761D01*
X106489523Y-126722142D01*
X95345238Y-126912619D02*
X95440476Y-126865000D01*
X95535714Y-126769761D01*
X95678571Y-126626904D01*
X95773809Y-126579285D01*
X95869047Y-126579285D01*
X95821428Y-126817380D02*
X95916666Y-126769761D01*
X96011904Y-126674523D01*
X96059523Y-126484047D01*
X96059523Y-126150714D01*
X96011904Y-125960238D01*
X95916666Y-125865000D01*
X95821428Y-125817380D01*
X95630952Y-125817380D01*
X95535714Y-125865000D01*
X95440476Y-125960238D01*
X95392857Y-126150714D01*
X95392857Y-126484047D01*
X95440476Y-126674523D01*
X95535714Y-126769761D01*
X95630952Y-126817380D01*
X95821428Y-126817380D01*
X95011904Y-125912619D02*
X94964285Y-125865000D01*
X94869047Y-125817380D01*
X94630952Y-125817380D01*
X94535714Y-125865000D01*
X94488095Y-125912619D01*
X94440476Y-126007857D01*
X94440476Y-126103095D01*
X94488095Y-126245952D01*
X95059523Y-126817380D01*
X94440476Y-126817380D01*
X83280238Y-126912619D02*
X83375476Y-126865000D01*
X83470714Y-126769761D01*
X83613571Y-126626904D01*
X83708809Y-126579285D01*
X83804047Y-126579285D01*
X83756428Y-126817380D02*
X83851666Y-126769761D01*
X83946904Y-126674523D01*
X83994523Y-126484047D01*
X83994523Y-126150714D01*
X83946904Y-125960238D01*
X83851666Y-125865000D01*
X83756428Y-125817380D01*
X83565952Y-125817380D01*
X83470714Y-125865000D01*
X83375476Y-125960238D01*
X83327857Y-126150714D01*
X83327857Y-126484047D01*
X83375476Y-126674523D01*
X83470714Y-126769761D01*
X83565952Y-126817380D01*
X83756428Y-126817380D01*
X82375476Y-126817380D02*
X82946904Y-126817380D01*
X82661190Y-126817380D02*
X82661190Y-125817380D01*
X82756428Y-125960238D01*
X82851666Y-126055476D01*
X82946904Y-126103095D01*
X107132380Y-64008095D02*
X106132380Y-64008095D01*
X106608571Y-64008095D02*
X106608571Y-64579523D01*
X107132380Y-64579523D02*
X106132380Y-64579523D01*
X106227619Y-65008095D02*
X106180000Y-65055714D01*
X106132380Y-65150952D01*
X106132380Y-65389047D01*
X106180000Y-65484285D01*
X106227619Y-65531904D01*
X106322857Y-65579523D01*
X106418095Y-65579523D01*
X106560952Y-65531904D01*
X107132380Y-64960476D01*
X107132380Y-65579523D01*
X105179523Y-53157380D02*
X105179523Y-52157380D01*
X104798571Y-52157380D01*
X104703333Y-52205000D01*
X104655714Y-52252619D01*
X104608095Y-52347857D01*
X104608095Y-52490714D01*
X104655714Y-52585952D01*
X104703333Y-52633571D01*
X104798571Y-52681190D01*
X105179523Y-52681190D01*
X103989047Y-52157380D02*
X103798571Y-52157380D01*
X103703333Y-52205000D01*
X103608095Y-52300238D01*
X103560476Y-52490714D01*
X103560476Y-52824047D01*
X103608095Y-53014523D01*
X103703333Y-53109761D01*
X103798571Y-53157380D01*
X103989047Y-53157380D01*
X104084285Y-53109761D01*
X104179523Y-53014523D01*
X104227142Y-52824047D01*
X104227142Y-52490714D01*
X104179523Y-52300238D01*
X104084285Y-52205000D01*
X103989047Y-52157380D01*
X103227142Y-52157380D02*
X102989047Y-53157380D01*
X102798571Y-52443095D01*
X102608095Y-53157380D01*
X102370000Y-52157380D01*
X101989047Y-52633571D02*
X101655714Y-52633571D01*
X101512857Y-53157380D02*
X101989047Y-53157380D01*
X101989047Y-52157380D01*
X101512857Y-52157380D01*
X100512857Y-53157380D02*
X100846190Y-52681190D01*
X101084285Y-53157380D02*
X101084285Y-52157380D01*
X100703333Y-52157380D01*
X100608095Y-52205000D01*
X100560476Y-52252619D01*
X100512857Y-52347857D01*
X100512857Y-52490714D01*
X100560476Y-52585952D01*
X100608095Y-52633571D01*
X100703333Y-52681190D01*
X101084285Y-52681190D01*
X100139285Y-55951428D02*
X99377380Y-55951428D01*
X98377380Y-56332380D02*
X98948809Y-56332380D01*
X98663095Y-56332380D02*
X98663095Y-55332380D01*
X98758333Y-55475238D01*
X98853571Y-55570476D01*
X98948809Y-55618095D01*
X97996428Y-55427619D02*
X97948809Y-55380000D01*
X97853571Y-55332380D01*
X97615476Y-55332380D01*
X97520238Y-55380000D01*
X97472619Y-55427619D01*
X97425000Y-55522857D01*
X97425000Y-55618095D01*
X97472619Y-55760952D01*
X98044047Y-56332380D01*
X97425000Y-56332380D01*
X97091666Y-55665714D02*
X96853571Y-56332380D01*
X96615476Y-55665714D01*
X98996428Y-66492380D02*
X99567857Y-66492380D01*
X99282142Y-66492380D02*
X99282142Y-65492380D01*
X99377380Y-65635238D01*
X99472619Y-65730476D01*
X99567857Y-65778095D01*
X98615476Y-65587619D02*
X98567857Y-65540000D01*
X98472619Y-65492380D01*
X98234523Y-65492380D01*
X98139285Y-65540000D01*
X98091666Y-65587619D01*
X98044047Y-65682857D01*
X98044047Y-65778095D01*
X98091666Y-65920952D01*
X98663095Y-66492380D01*
X98044047Y-66492380D01*
X97710714Y-65825714D02*
X97472619Y-66492380D01*
X97234523Y-65825714D01*
X99202857Y-68032380D02*
X99679047Y-68032380D01*
X99726666Y-68508571D01*
X99679047Y-68460952D01*
X99583809Y-68413333D01*
X99345714Y-68413333D01*
X99250476Y-68460952D01*
X99202857Y-68508571D01*
X99155238Y-68603809D01*
X99155238Y-68841904D01*
X99202857Y-68937142D01*
X99250476Y-68984761D01*
X99345714Y-69032380D01*
X99583809Y-69032380D01*
X99679047Y-68984761D01*
X99726666Y-68937142D01*
X98821904Y-68365714D02*
X98583809Y-69032380D01*
X98345714Y-68365714D01*
X77922380Y-64008095D02*
X76922380Y-64008095D01*
X77398571Y-64008095D02*
X77398571Y-64579523D01*
X77922380Y-64579523D02*
X76922380Y-64579523D01*
X77922380Y-65579523D02*
X77922380Y-65008095D01*
X77922380Y-65293809D02*
X76922380Y-65293809D01*
X77065238Y-65198571D01*
X77160476Y-65103333D01*
X77208095Y-65008095D01*
X76826666Y-52633571D02*
X76493333Y-52633571D01*
X76350476Y-53157380D02*
X76826666Y-53157380D01*
X76826666Y-52157380D01*
X76350476Y-52157380D01*
X76017142Y-53157380D02*
X75493333Y-52490714D01*
X76017142Y-52490714D02*
X75493333Y-53157380D01*
X75112380Y-52490714D02*
X75112380Y-53490714D01*
X75112380Y-52538333D02*
X75017142Y-52490714D01*
X74826666Y-52490714D01*
X74731428Y-52538333D01*
X74683809Y-52585952D01*
X74636190Y-52681190D01*
X74636190Y-52966904D01*
X74683809Y-53062142D01*
X74731428Y-53109761D01*
X74826666Y-53157380D01*
X75017142Y-53157380D01*
X75112380Y-53109761D01*
X73779047Y-53157380D02*
X73779047Y-52633571D01*
X73826666Y-52538333D01*
X73921904Y-52490714D01*
X74112380Y-52490714D01*
X74207619Y-52538333D01*
X73779047Y-53109761D02*
X73874285Y-53157380D01*
X74112380Y-53157380D01*
X74207619Y-53109761D01*
X74255238Y-53014523D01*
X74255238Y-52919285D01*
X74207619Y-52824047D01*
X74112380Y-52776428D01*
X73874285Y-52776428D01*
X73779047Y-52728809D01*
X73302857Y-52490714D02*
X73302857Y-53157380D01*
X73302857Y-52585952D02*
X73255238Y-52538333D01*
X73160000Y-52490714D01*
X73017142Y-52490714D01*
X72921904Y-52538333D01*
X72874285Y-52633571D01*
X72874285Y-53157380D01*
X71969523Y-53157380D02*
X71969523Y-52157380D01*
X71969523Y-53109761D02*
X72064761Y-53157380D01*
X72255238Y-53157380D01*
X72350476Y-53109761D01*
X72398095Y-53062142D01*
X72445714Y-52966904D01*
X72445714Y-52681190D01*
X72398095Y-52585952D01*
X72350476Y-52538333D01*
X72255238Y-52490714D01*
X72064761Y-52490714D01*
X71969523Y-52538333D01*
X71112380Y-53109761D02*
X71207619Y-53157380D01*
X71398095Y-53157380D01*
X71493333Y-53109761D01*
X71540952Y-53014523D01*
X71540952Y-52633571D01*
X71493333Y-52538333D01*
X71398095Y-52490714D01*
X71207619Y-52490714D01*
X71112380Y-52538333D01*
X71064761Y-52633571D01*
X71064761Y-52728809D01*
X71540952Y-52824047D01*
X70636190Y-53157380D02*
X70636190Y-52490714D01*
X70636190Y-52681190D02*
X70588571Y-52585952D01*
X70540952Y-52538333D01*
X70445714Y-52490714D01*
X70350476Y-52490714D01*
X101766666Y-100687142D02*
X101814285Y-100734761D01*
X101957142Y-100782380D01*
X102052380Y-100782380D01*
X102195238Y-100734761D01*
X102290476Y-100639523D01*
X102338095Y-100544285D01*
X102385714Y-100353809D01*
X102385714Y-100210952D01*
X102338095Y-100020476D01*
X102290476Y-99925238D01*
X102195238Y-99830000D01*
X102052380Y-99782380D01*
X101957142Y-99782380D01*
X101814285Y-99830000D01*
X101766666Y-99877619D01*
X101195238Y-100210952D02*
X101290476Y-100163333D01*
X101338095Y-100115714D01*
X101385714Y-100020476D01*
X101385714Y-99972857D01*
X101338095Y-99877619D01*
X101290476Y-99830000D01*
X101195238Y-99782380D01*
X101004761Y-99782380D01*
X100909523Y-99830000D01*
X100861904Y-99877619D01*
X100814285Y-99972857D01*
X100814285Y-100020476D01*
X100861904Y-100115714D01*
X100909523Y-100163333D01*
X101004761Y-100210952D01*
X101195238Y-100210952D01*
X101290476Y-100258571D01*
X101338095Y-100306190D01*
X101385714Y-100401428D01*
X101385714Y-100591904D01*
X101338095Y-100687142D01*
X101290476Y-100734761D01*
X101195238Y-100782380D01*
X101004761Y-100782380D01*
X100909523Y-100734761D01*
X100861904Y-100687142D01*
X100814285Y-100591904D01*
X100814285Y-100401428D01*
X100861904Y-100306190D01*
X100909523Y-100258571D01*
X101004761Y-100210952D01*
X101766666Y-98782142D02*
X101814285Y-98829761D01*
X101957142Y-98877380D01*
X102052380Y-98877380D01*
X102195238Y-98829761D01*
X102290476Y-98734523D01*
X102338095Y-98639285D01*
X102385714Y-98448809D01*
X102385714Y-98305952D01*
X102338095Y-98115476D01*
X102290476Y-98020238D01*
X102195238Y-97925000D01*
X102052380Y-97877380D01*
X101957142Y-97877380D01*
X101814285Y-97925000D01*
X101766666Y-97972619D01*
X101433333Y-97877380D02*
X100766666Y-97877380D01*
X101195238Y-98877380D01*
X101766666Y-96877142D02*
X101814285Y-96924761D01*
X101957142Y-96972380D01*
X102052380Y-96972380D01*
X102195238Y-96924761D01*
X102290476Y-96829523D01*
X102338095Y-96734285D01*
X102385714Y-96543809D01*
X102385714Y-96400952D01*
X102338095Y-96210476D01*
X102290476Y-96115238D01*
X102195238Y-96020000D01*
X102052380Y-95972380D01*
X101957142Y-95972380D01*
X101814285Y-96020000D01*
X101766666Y-96067619D01*
X100909523Y-95972380D02*
X101100000Y-95972380D01*
X101195238Y-96020000D01*
X101242857Y-96067619D01*
X101338095Y-96210476D01*
X101385714Y-96400952D01*
X101385714Y-96781904D01*
X101338095Y-96877142D01*
X101290476Y-96924761D01*
X101195238Y-96972380D01*
X101004761Y-96972380D01*
X100909523Y-96924761D01*
X100861904Y-96877142D01*
X100814285Y-96781904D01*
X100814285Y-96543809D01*
X100861904Y-96448571D01*
X100909523Y-96400952D01*
X101004761Y-96353333D01*
X101195238Y-96353333D01*
X101290476Y-96400952D01*
X101338095Y-96448571D01*
X101385714Y-96543809D01*
X101766666Y-93702142D02*
X101814285Y-93749761D01*
X101957142Y-93797380D01*
X102052380Y-93797380D01*
X102195238Y-93749761D01*
X102290476Y-93654523D01*
X102338095Y-93559285D01*
X102385714Y-93368809D01*
X102385714Y-93225952D01*
X102338095Y-93035476D01*
X102290476Y-92940238D01*
X102195238Y-92845000D01*
X102052380Y-92797380D01*
X101957142Y-92797380D01*
X101814285Y-92845000D01*
X101766666Y-92892619D01*
X100909523Y-93130714D02*
X100909523Y-93797380D01*
X101147619Y-92749761D02*
X101385714Y-93464047D01*
X100766666Y-93464047D01*
X101766666Y-91797142D02*
X101814285Y-91844761D01*
X101957142Y-91892380D01*
X102052380Y-91892380D01*
X102195238Y-91844761D01*
X102290476Y-91749523D01*
X102338095Y-91654285D01*
X102385714Y-91463809D01*
X102385714Y-91320952D01*
X102338095Y-91130476D01*
X102290476Y-91035238D01*
X102195238Y-90940000D01*
X102052380Y-90892380D01*
X101957142Y-90892380D01*
X101814285Y-90940000D01*
X101766666Y-90987619D01*
X101433333Y-90892380D02*
X100814285Y-90892380D01*
X101147619Y-91273333D01*
X101004761Y-91273333D01*
X100909523Y-91320952D01*
X100861904Y-91368571D01*
X100814285Y-91463809D01*
X100814285Y-91701904D01*
X100861904Y-91797142D01*
X100909523Y-91844761D01*
X101004761Y-91892380D01*
X101290476Y-91892380D01*
X101385714Y-91844761D01*
X101433333Y-91797142D01*
X101766666Y-89892142D02*
X101814285Y-89939761D01*
X101957142Y-89987380D01*
X102052380Y-89987380D01*
X102195238Y-89939761D01*
X102290476Y-89844523D01*
X102338095Y-89749285D01*
X102385714Y-89558809D01*
X102385714Y-89415952D01*
X102338095Y-89225476D01*
X102290476Y-89130238D01*
X102195238Y-89035000D01*
X102052380Y-88987380D01*
X101957142Y-88987380D01*
X101814285Y-89035000D01*
X101766666Y-89082619D01*
X101385714Y-89082619D02*
X101338095Y-89035000D01*
X101242857Y-88987380D01*
X101004761Y-88987380D01*
X100909523Y-89035000D01*
X100861904Y-89082619D01*
X100814285Y-89177857D01*
X100814285Y-89273095D01*
X100861904Y-89415952D01*
X101433333Y-89987380D01*
X100814285Y-89987380D01*
X88979285Y-53506666D02*
X88503095Y-53506666D01*
X89074523Y-53792380D02*
X88741190Y-52792380D01*
X88407857Y-53792380D01*
X87550714Y-53792380D02*
X88122142Y-53792380D01*
X87836428Y-53792380D02*
X87836428Y-52792380D01*
X87931666Y-52935238D01*
X88026904Y-53030476D01*
X88122142Y-53078095D01*
M02*
